# MagicaVoxel @ Ephtracy

# group
o 

# material
mtllib wood.mtl
usemtl palette

# normals
vn -1 0 0
vn 1 0 0
vn 0 0 1
vn 0 0 -1
vn 0 -1 0
vn 0 1 0

# texcoords
vt 0.0566406 0.5
vt 0.169922 0.5

# verts
v -2.2 -0.1 0.4
v -2.2 -0.1 -0.2
v -2.2 -4.47035e-08 -0.2
v -2.2 -4.47035e-08 -0.3
v -2.2 0.1 0.4
v -2.2 0.1 -0.3
v -2.1 -0.1 -0.2
v -2.1 -0.1 -0.3
v -2.1 -4.47035e-08 -0.2
v -2.1 -4.47035e-08 -0.3
v -2.1 -4.47035e-08 -0.4
v -2.1 0.1 -0.3
v -2.1 0.1 -0.4
v -2 -0.1 -0.3
v -2 -0.1 -0.4
v -2 -4.47035e-08 -0.3
v -2 -4.47035e-08 -0.4
v -1.9 -4.47035e-08 0.4
v -1.9 -4.47035e-08 0.2
v -1.9 0.1 0.4
v -1.9 0.1 0.2
v -0.8 -4.47035e-08 0.4
v -0.8 -4.47035e-08 0.3
v -0.8 0.1 0.4
v -0.8 0.1 0.3
v -0.5 -4.47035e-08 0.4
v -0.5 -4.47035e-08 0.3
v -0.5 0.1 0.4
v -0.5 0.1 0.3
v 0.1 -4.47035e-08 0.2
v 0.1 -4.47035e-08 0.1
v 0.1 0.1 0.2
v 0.1 0.1 0.1
v 0.2 -0.1 -0.3
v 0.2 -0.1 -0.4
v 0.2 -4.47035e-08 -0.3
v 0.2 -4.47035e-08 -0.4
v 0.4 -4.47035e-08 0.1
v 0.4 -4.47035e-08 0
v 0.4 0.1 0.1
v 0.4 0.1 0
v 0.6 -4.47035e-08 -0.3
v 0.6 -4.47035e-08 -0.4
v 0.6 0.1 -0.3
v 0.6 0.1 -0.4
v 1.3 -4.47035e-08 0.3
v 1.3 -4.47035e-08 0.2
v 1.3 0.1 0.3
v 1.3 0.1 0.2
v 1.5 -4.47035e-08 0.4
v 1.5 -4.47035e-08 0.2
v 1.5 0.1 0.4
v 1.5 0.1 0.2
v 1.7 -4.47035e-08 -0.2
v 1.7 -4.47035e-08 -0.3
v 1.7 0.1 -0.2
v 1.7 0.1 -0.3
v 1.8 -4.47035e-08 -0.3
v 1.8 -4.47035e-08 -0.4
v 1.8 0.1 -0.3
v 1.8 0.1 -0.4
v -2.1 -4.47035e-08 0.4
v -2.1 -4.47035e-08 0.2
v -2.1 0.1 0.4
v -2.1 0.1 0.2
v -1 -4.47035e-08 0.4
v -1 -4.47035e-08 0.3
v -1 0.1 0.4
v -1 0.1 0.3
v -0.6 -4.47035e-08 0.4
v -0.6 -4.47035e-08 0.3
v -0.6 0.1 0.4
v -0.6 0.1 0.3
v 0 -4.47035e-08 0.2
v 0 -4.47035e-08 0.1
v 0 0.1 0.2
v 0 0.1 0.1
v 0.1 -0.1 -0.3
v 0.1 -0.1 -0.4
v 0.1 -4.47035e-08 -0.3
v 0.1 -4.47035e-08 -0.4
v 0.3 -4.47035e-08 0.1
v 0.3 -4.47035e-08 0
v 0.3 0.1 0.1
v 0.3 0.1 0
v 0.5 -4.47035e-08 -0.3
v 0.5 -4.47035e-08 -0.4
v 0.5 0.1 -0.3
v 0.5 0.1 -0.4
v 1.2 -4.47035e-08 0.3
v 1.2 -4.47035e-08 0.2
v 1.2 0.1 0.3
v 1.2 0.1 0.2
v 1.4 -4.47035e-08 0.4
v 1.4 -4.47035e-08 0.2
v 1.4 0.1 0.4
v 1.4 0.1 0.2
v 1.6 -4.47035e-08 -0.2
v 1.6 -4.47035e-08 -0.3
v 1.6 0.1 -0.2
v 1.6 0.1 -0.3
v 1.7 -4.47035e-08 -0.3
v 1.7 -4.47035e-08 -0.4
v 1.7 0.1 -0.3
v 1.7 0.1 -0.4
v 2 -4.47035e-08 -0.3
v 2 -4.47035e-08 -0.4
v 2 0.1 -0.3
v 2 0.1 -0.4
v 2.1 -0.1 -0.3
v 2.1 -0.1 -0.4
v 2.1 -4.47035e-08 -0.2
v 2.1 -4.47035e-08 -0.3
v 2.1 -4.47035e-08 -0.4
v 2.1 0.1 -0.2
v 2.1 0.1 -0.3
v 2.2 -0.1 0.4
v 2.2 -0.1 -0.3
v 2.2 -4.47035e-08 -0.2
v 2.2 -4.47035e-08 -0.3
v 2.2 0.1 0.4
v 2.2 0.1 -0.2
v -2.2 -0.1 0.4
v -2.2 0.1 0.4
v -2.1 -4.47035e-08 0.4
v -2.1 0.1 0.4
v -1.9 -4.47035e-08 0.4
v -1.9 0.1 0.4
v -1 -4.47035e-08 0.4
v -1 0.1 0.4
v -0.8 -4.47035e-08 0.4
v -0.8 0.1 0.4
v -0.7 -4.47035e-08 0.4
v -0.7 0.1 0.4
v -0.6 -4.47035e-08 0.4
v -0.6 0.1 0.4
v -0.5 -4.47035e-08 0.4
v -0.5 0.1 0.4
v 1.4 -4.47035e-08 0.4
v 1.4 0.1 0.4
v 1.5 -4.47035e-08 0.4
v 1.5 0.1 0.4
v 2.2 -0.1 0.4
v 2.2 0.1 0.4
v -1 -4.47035e-08 0.3
v -1 0.1 0.3
v -0.8 -4.47035e-08 0.3
v -0.8 0.1 0.3
v -0.6 -4.47035e-08 0.3
v -0.6 0.1 0.3
v -0.5 -4.47035e-08 0.3
v -0.5 0.1 0.3
v -2.1 -4.47035e-08 0.2
v -2.1 0.1 0.2
v -1.9 -4.47035e-08 0.2
v -1.9 0.1 0.2
v 1.2 -4.47035e-08 0.2
v 1.2 0.1 0.2
v 1.3 -4.47035e-08 0.2
v 1.3 0.1 0.2
v 1.4 -4.47035e-08 0.2
v 1.4 0.1 0.2
v 1.5 -4.47035e-08 0.2
v 1.5 0.1 0.2
v 0 -4.47035e-08 0.1
v 0 0.1 0.1
v 0.1 -4.47035e-08 0.1
v 0.1 0.1 0.1
v 0.3 -4.47035e-08 0
v 0.3 0.1 0
v 0.4 -4.47035e-08 0
v 0.4 0.1 0
v 1.6 -4.47035e-08 -0.3
v 1.6 0.1 -0.3
v 1.7 -4.47035e-08 -0.3
v 1.7 0.1 -0.3
v 1.2 -4.47035e-08 0.3
v 1.2 0.1 0.3
v 1.3 -4.47035e-08 0.3
v 1.3 0.1 0.3
v 0 -4.47035e-08 0.2
v 0 0.1 0.2
v 0.1 -4.47035e-08 0.2
v 0.1 0.1 0.2
v 0.3 -4.47035e-08 0.1
v 0.3 0.1 0.1
v 0.4 -4.47035e-08 0.1
v 0.4 0.1 0.1
v -2.2 -0.1 -0.2
v -2.2 -4.47035e-08 -0.2
v -2.1 -0.1 -0.2
v -2.1 -4.47035e-08 -0.2
v 1.6 -4.47035e-08 -0.2
v 1.6 0.1 -0.2
v 1.7 -4.47035e-08 -0.2
v 1.7 0.1 -0.2
v 2.1 -4.47035e-08 -0.2
v 2.1 0.1 -0.2
v 2.2 -4.47035e-08 -0.2
v 2.2 0.1 -0.2
v -2.2 -4.47035e-08 -0.3
v -2.2 0.1 -0.3
v -2.1 -0.1 -0.3
v -2.1 -4.47035e-08 -0.3
v -2.1 0.1 -0.3
v -2 -0.1 -0.3
v -2 -4.47035e-08 -0.3
v 0.1 -0.1 -0.3
v 0.1 -4.47035e-08 -0.3
v 0.2 -0.1 -0.3
v 0.2 -4.47035e-08 -0.3
v 0.5 -4.47035e-08 -0.3
v 0.5 0.1 -0.3
v 0.6 -4.47035e-08 -0.3
v 0.6 0.1 -0.3
v 1.7 -4.47035e-08 -0.3
v 1.7 0.1 -0.3
v 1.8 -4.47035e-08 -0.3
v 1.8 0.1 -0.3
v 2 -4.47035e-08 -0.3
v 2 0.1 -0.3
v 2.1 -0.1 -0.3
v 2.1 -4.47035e-08 -0.3
v 2.1 0.1 -0.3
v 2.2 -0.1 -0.3
v 2.2 -4.47035e-08 -0.3
v -2.1 -4.47035e-08 -0.4
v -2.1 0.1 -0.4
v -2 -0.1 -0.4
v -2 -4.47035e-08 -0.4
v 0.1 -0.1 -0.4
v 0.1 -4.47035e-08 -0.4
v 0.2 -0.1 -0.4
v 0.2 -4.47035e-08 -0.4
v 0.5 -4.47035e-08 -0.4
v 0.5 0.1 -0.4
v 0.6 -4.47035e-08 -0.4
v 0.6 0.1 -0.4
v 1.7 -4.47035e-08 -0.4
v 1.7 0.1 -0.4
v 1.8 -4.47035e-08 -0.4
v 1.8 0.1 -0.4
v 2 -4.47035e-08 -0.4
v 2 0.1 -0.4
v 2.1 -0.1 -0.4
v 2.1 -4.47035e-08 -0.4
v -2.2 -0.1 0.4
v 2.2 -0.1 0.4
v 0 -0.1 0.2
v 0.1 -0.1 0.2
v 0 -0.1 0.1
v 0.1 -0.1 0.1
v -2.2 -0.1 -0.2
v -2.1 -0.1 -0.2
v -2.1 -0.1 -0.3
v -2 -0.1 -0.3
v 0.1 -0.1 -0.3
v 0.2 -0.1 -0.3
v 2.1 -0.1 -0.3
v 2.2 -0.1 -0.3
v -2 -0.1 -0.4
v 0.1 -0.1 -0.4
v 0.2 -0.1 -0.4
v 2.1 -0.1 -0.4
v -2.2 -4.47035e-08 -0.2
v -2.1 -4.47035e-08 -0.2
v -2.2 -4.47035e-08 -0.3
v -2.1 -4.47035e-08 -0.3
v -2 -4.47035e-08 -0.3
v 0.1 -4.47035e-08 -0.3
v 0.2 -4.47035e-08 -0.3
v -2.1 -4.47035e-08 -0.4
v -2 -4.47035e-08 -0.4
v 0.1 -4.47035e-08 -0.4
v 0.2 -4.47035e-08 -0.4
v -2.1 -4.47035e-08 0.4
v -1.9 -4.47035e-08 0.4
v -1 -4.47035e-08 0.4
v -0.8 -4.47035e-08 0.4
v -0.6 -4.47035e-08 0.4
v -0.5 -4.47035e-08 0.4
v 1.4 -4.47035e-08 0.4
v 1.5 -4.47035e-08 0.4
v -1 -4.47035e-08 0.3
v -0.8 -4.47035e-08 0.3
v -0.6 -4.47035e-08 0.3
v -0.5 -4.47035e-08 0.3
v 1.2 -4.47035e-08 0.3
v 1.3 -4.47035e-08 0.3
v -2.1 -4.47035e-08 0.2
v -1.9 -4.47035e-08 0.2
v 0 -4.47035e-08 0.2
v 0.1 -4.47035e-08 0.2
v 1.2 -4.47035e-08 0.2
v 1.3 -4.47035e-08 0.2
v 1.4 -4.47035e-08 0.2
v 1.5 -4.47035e-08 0.2
v 0 -4.47035e-08 0.1
v 0.1 -4.47035e-08 0.1
v 0.3 -4.47035e-08 0.1
v 0.4 -4.47035e-08 0.1
v 0.3 -4.47035e-08 0
v 0.4 -4.47035e-08 0
v 1.6 -4.47035e-08 -0.2
v 1.7 -4.47035e-08 -0.2
v 2.1 -4.47035e-08 -0.2
v 2.2 -4.47035e-08 -0.2
v 0.5 -4.47035e-08 -0.3
v 0.6 -4.47035e-08 -0.3
v 1.6 -4.47035e-08 -0.3
v 1.7 -4.47035e-08 -0.3
v 1.8 -4.47035e-08 -0.3
v 2 -4.47035e-08 -0.3
v 2.1 -4.47035e-08 -0.3
v 2.2 -4.47035e-08 -0.3
v 0.5 -4.47035e-08 -0.4
v 0.6 -4.47035e-08 -0.4
v 1.7 -4.47035e-08 -0.4
v 1.8 -4.47035e-08 -0.4
v 2 -4.47035e-08 -0.4
v 2.1 -4.47035e-08 -0.4
v -2.2 0.1 0.4
v -2.1 0.1 0.4
v -1.9 0.1 0.4
v -1 0.1 0.4
v -0.8 0.1 0.4
v -0.7 0.1 0.4
v -0.6 0.1 0.4
v -0.5 0.1 0.4
v 1.4 0.1 0.4
v 1.5 0.1 0.4
v 2.2 0.1 0.4
v -1 0.1 0.3
v -0.8 0.1 0.3
v -0.7 0.1 0.3
v -0.6 0.1 0.3
v -0.5 0.1 0.3
v 1.2 0.1 0.3
v 1.3 0.1 0.3
v -2.1 0.1 0.2
v -1.9 0.1 0.2
v 0 0.1 0.2
v 0.1 0.1 0.2
v 1.2 0.1 0.2
v 1.3 0.1 0.2
v 1.4 0.1 0.2
v 1.5 0.1 0.2
v 0 0.1 0.1
v 0.1 0.1 0.1
v 0.3 0.1 0.1
v 0.4 0.1 0.1
v 0.3 0.1 0
v 0.4 0.1 0
v 1.6 0.1 -0.2
v 1.7 0.1 -0.2
v 2.1 0.1 -0.2
v 2.2 0.1 -0.2
v -2.2 0.1 -0.3
v -2.1 0.1 -0.3
v 0.5 0.1 -0.3
v 0.6 0.1 -0.3
v 1.6 0.1 -0.3
v 1.7 0.1 -0.3
v 1.8 0.1 -0.3
v 2 0.1 -0.3
v 2.1 0.1 -0.3
v -2.1 0.1 -0.4
v 0.5 0.1 -0.4
v 0.6 0.1 -0.4
v 1.7 0.1 -0.4
v 1.8 0.1 -0.4
v 2 0.1 -0.4

# faces
f 3/2/1 2/2/1 1/2/1
f 5/2/1 3/2/1 1/2/1
f 5/2/1 4/2/1 3/2/1
f 6/2/1 4/2/1 5/2/1
f 9/2/1 8/2/1 7/2/1
f 10/2/1 8/2/1 9/2/1
f 12/2/1 11/2/1 10/2/1
f 13/2/1 11/2/1 12/2/1
f 16/2/1 15/2/1 14/2/1
f 17/2/1 15/2/1 16/2/1
f 20/2/1 19/2/1 18/2/1
f 21/2/1 19/2/1 20/2/1
f 24/1/1 23/1/1 22/1/1
f 25/1/1 23/1/1 24/1/1
f 28/2/1 27/2/1 26/2/1
f 29/2/1 27/2/1 28/2/1
f 32/2/1 31/2/1 30/2/1
f 33/2/1 31/2/1 32/2/1
f 36/2/1 35/2/1 34/2/1
f 37/2/1 35/2/1 36/2/1
f 40/2/1 39/2/1 38/2/1
f 41/2/1 39/2/1 40/2/1
f 44/2/1 43/2/1 42/2/1
f 45/2/1 43/2/1 44/2/1
f 48/2/1 47/2/1 46/2/1
f 49/2/1 47/2/1 48/2/1
f 52/2/1 51/2/1 50/2/1
f 53/2/1 51/2/1 52/2/1
f 56/2/1 55/2/1 54/2/1
f 57/2/1 55/2/1 56/2/1
f 60/2/1 59/2/1 58/2/1
f 61/2/1 59/2/1 60/2/1
f 62/2/2 63/2/2 64/2/2
f 64/2/2 63/2/2 65/2/2
f 66/2/2 67/2/2 68/2/2
f 68/2/2 67/2/2 69/2/2
f 70/2/2 71/2/2 72/2/2
f 72/2/2 71/2/2 73/2/2
f 74/2/2 75/2/2 76/2/2
f 76/2/2 75/2/2 77/2/2
f 78/2/2 79/2/2 80/2/2
f 80/2/2 79/2/2 81/2/2
f 82/2/2 83/2/2 84/2/2
f 84/2/2 83/2/2 85/2/2
f 86/2/2 87/2/2 88/2/2
f 88/2/2 87/2/2 89/2/2
f 90/2/2 91/2/2 92/2/2
f 92/2/2 91/2/2 93/2/2
f 94/2/2 95/2/2 96/2/2
f 96/2/2 95/2/2 97/2/2
f 98/2/2 99/2/2 100/2/2
f 100/2/2 99/2/2 101/2/2
f 102/2/2 103/2/2 104/2/2
f 104/2/2 103/2/2 105/2/2
f 106/2/2 107/2/2 108/2/2
f 108/2/2 107/2/2 109/2/2
f 110/2/2 111/2/2 113/2/2
f 113/2/2 111/2/2 114/2/2
f 112/2/2 113/2/2 115/2/2
f 115/2/2 113/2/2 116/2/2
f 117/2/2 118/2/2 119/2/2
f 119/2/2 118/2/2 120/2/2
f 117/2/2 119/2/2 121/2/2
f 121/2/2 119/2/2 122/2/2
f 125/2/3 124/2/3 123/2/3
f 126/2/3 124/2/3 125/2/3
f 127/2/3 125/2/3 123/2/3
f 129/2/3 127/2/3 123/2/3
f 129/2/3 128/2/3 127/2/3
f 130/2/3 128/2/3 129/2/3
f 131/2/3 129/2/3 123/2/3
f 133/2/3 131/2/3 123/2/3
f 133/1/3 132/1/3 131/1/3
f 134/1/3 132/1/3 133/1/3
f 135/2/3 133/2/3 123/2/3
f 135/2/3 134/2/3 133/2/3
f 136/2/3 134/2/3 135/2/3
f 137/2/3 135/2/3 123/2/3
f 139/2/3 137/2/3 123/2/3
f 139/2/3 138/2/3 137/2/3
f 140/2/3 138/2/3 139/2/3
f 141/2/3 139/2/3 123/2/3
f 143/2/3 141/2/3 123/2/3
f 143/2/3 142/2/3 141/2/3
f 144/2/3 142/2/3 143/2/3
f 147/2/3 146/2/3 145/2/3
f 148/2/3 146/2/3 147/2/3
f 151/2/3 150/2/3 149/2/3
f 152/2/3 150/2/3 151/2/3
f 155/2/3 154/2/3 153/2/3
f 156/2/3 154/2/3 155/2/3
f 159/2/3 158/2/3 157/2/3
f 160/2/3 158/2/3 159/2/3
f 163/2/3 162/2/3 161/2/3
f 164/2/3 162/2/3 163/2/3
f 167/2/3 166/2/3 165/2/3
f 168/2/3 166/2/3 167/2/3
f 171/2/3 170/2/3 169/2/3
f 172/2/3 170/2/3 171/2/3
f 175/2/3 174/2/3 173/2/3
f 176/2/3 174/2/3 175/2/3
f 177/2/4 178/2/4 179/2/4
f 179/2/4 178/2/4 180/2/4
f 181/2/4 182/2/4 183/2/4
f 183/2/4 182/2/4 184/2/4
f 185/2/4 186/2/4 187/2/4
f 187/2/4 186/2/4 188/2/4
f 189/2/4 190/2/4 191/2/4
f 191/2/4 190/2/4 192/2/4
f 193/2/4 194/2/4 195/2/4
f 195/2/4 194/2/4 196/2/4
f 197/2/4 198/2/4 199/2/4
f 199/2/4 198/2/4 200/2/4
f 201/2/4 202/2/4 204/2/4
f 204/2/4 202/2/4 205/2/4
f 203/2/4 204/2/4 206/2/4
f 206/2/4 204/2/4 207/2/4
f 208/2/4 209/2/4 210/2/4
f 210/2/4 209/2/4 211/2/4
f 212/2/4 213/2/4 214/2/4
f 214/2/4 213/2/4 215/2/4
f 216/2/4 217/2/4 218/2/4
f 218/2/4 217/2/4 219/2/4
f 220/2/4 221/2/4 223/2/4
f 223/2/4 221/2/4 224/2/4
f 222/2/4 223/2/4 225/2/4
f 225/2/4 223/2/4 226/2/4
f 227/2/4 228/2/4 230/2/4
f 229/2/4 230/2/4 231/2/4
f 230/2/4 228/2/4 232/2/4
f 231/2/4 230/2/4 232/2/4
f 232/2/4 228/2/4 234/2/4
f 234/2/4 228/2/4 235/2/4
f 233/2/4 234/2/4 235/2/4
f 235/2/4 228/2/4 236/2/4
f 233/2/4 235/2/4 237/2/4
f 233/2/4 237/2/4 239/2/4
f 237/2/4 238/2/4 239/2/4
f 239/2/4 238/2/4 240/2/4
f 233/2/4 239/2/4 241/2/4
f 233/2/4 241/2/4 243/2/4
f 241/2/4 242/2/4 243/2/4
f 243/2/4 242/2/4 244/2/4
f 233/2/4 243/2/4 245/2/4
f 245/2/4 243/2/4 246/2/4
f 249/2/5 248/2/5 247/2/5
f 250/2/5 248/2/5 249/2/5
f 251/2/5 249/2/5 247/2/5
f 251/1/5 250/1/5 249/1/5
f 252/2/5 248/2/5 250/2/5
f 252/1/5 250/1/5 251/1/5
f 253/2/5 251/2/5 247/2/5
f 253/2/5 252/2/5 251/2/5
f 254/2/5 252/2/5 253/2/5
f 255/2/5 252/2/5 254/2/5
f 256/2/5 252/2/5 255/2/5
f 257/2/5 248/2/5 252/2/5
f 257/2/5 252/2/5 256/2/5
f 258/2/5 248/2/5 257/2/5
f 259/2/5 248/2/5 258/2/5
f 260/2/5 248/2/5 259/2/5
f 261/2/5 257/2/5 256/2/5
f 262/2/5 257/2/5 261/2/5
f 263/2/5 259/2/5 258/2/5
f 264/2/5 259/2/5 263/2/5
f 267/2/5 266/2/5 265/2/5
f 268/2/5 266/2/5 267/2/5
f 272/2/5 269/2/5 268/2/5
f 273/2/5 269/2/5 272/2/5
f 274/2/5 271/2/5 270/2/5
f 275/2/5 271/2/5 274/2/5
f 278/2/6 279/2/6 284/2/6
f 284/2/6 279/2/6 285/2/6
f 280/2/6 281/2/6 286/2/6
f 286/2/6 281/2/6 287/2/6
f 276/2/6 277/2/6 290/2/6
f 290/2/6 277/2/6 291/2/6
f 288/2/6 289/2/6 294/2/6
f 294/2/6 289/2/6 295/2/6
f 282/2/6 283/2/6 296/2/6
f 296/2/6 283/2/6 297/2/6
f 292/1/6 293/1/6 298/1/6
f 298/1/6 293/1/6 299/1/6
f 300/2/6 301/2/6 302/2/6
f 302/2/6 301/2/6 303/2/6
f 304/2/6 305/2/6 310/2/6
f 310/2/6 305/2/6 311/2/6
f 306/2/6 307/2/6 314/2/6
f 314/2/6 307/2/6 315/2/6
f 308/2/6 309/2/6 316/2/6
f 316/2/6 309/2/6 317/2/6
f 311/2/6 312/2/6 318/2/6
f 318/2/6 312/2/6 319/2/6
f 313/2/6 314/2/6 320/2/6
f 320/2/6 314/2/6 321/2/6
f 324/2/6 325/2/6 333/2/6
f 326/1/6 327/1/6 334/1/6
f 327/2/6 328/2/6 335/2/6
f 334/1/6 327/1/6 335/1/6
f 335/2/6 328/2/6 336/2/6
f 329/2/6 330/2/6 337/2/6
f 337/2/6 330/2/6 338/2/6
f 338/2/6 330/2/6 339/2/6
f 322/2/6 323/2/6 340/2/6
f 324/2/6 333/2/6 341/2/6
f 333/2/6 334/2/6 341/2/6
f 337/2/6 338/2/6 341/2/6
f 336/2/6 337/2/6 341/2/6
f 335/2/6 336/2/6 341/2/6
f 334/2/6 335/2/6 341/2/6
f 341/2/6 338/2/6 342/2/6
f 342/2/6 338/2/6 343/2/6
f 343/2/6 338/2/6 344/2/6
f 339/2/6 330/2/6 345/2/6
f 345/2/6 330/2/6 346/2/6
f 331/2/6 332/2/6 347/2/6
f 340/2/6 341/2/6 348/2/6
f 341/2/6 342/2/6 348/2/6
f 343/2/6 344/2/6 349/2/6
f 345/2/6 346/2/6 349/2/6
f 344/2/6 345/2/6 349/2/6
f 346/2/6 347/2/6 349/2/6
f 349/2/6 347/2/6 350/2/6
f 350/2/6 347/2/6 351/2/6
f 348/2/6 349/2/6 352/2/6
f 349/2/6 350/2/6 352/2/6
f 351/2/6 347/2/6 353/2/6
f 347/2/6 332/2/6 354/2/6
f 352/2/6 353/2/6 354/2/6
f 353/2/6 347/2/6 354/2/6
f 354/2/6 332/2/6 355/2/6
f 355/2/6 332/2/6 356/2/6
f 356/2/6 332/2/6 357/2/6
f 340/2/6 348/2/6 358/2/6
f 322/2/6 340/2/6 358/2/6
f 348/2/6 352/2/6 358/2/6
f 352/2/6 354/2/6 358/2/6
f 358/2/6 354/2/6 359/2/6
f 359/2/6 354/2/6 360/2/6
f 360/2/6 354/2/6 361/2/6
f 361/2/6 354/2/6 362/2/6
f 355/2/6 356/2/6 363/2/6
f 363/2/6 356/2/6 364/2/6
f 364/2/6 356/2/6 365/2/6
f 365/2/6 356/2/6 366/2/6
f 359/2/6 360/2/6 367/2/6
f 367/2/6 360/2/6 368/2/6
f 361/2/6 362/2/6 369/2/6
f 362/2/6 363/2/6 369/2/6
f 369/2/6 363/2/6 370/2/6
f 364/2/6 365/2/6 371/2/6
f 371/2/6 365/2/6 372/2/6
