# MagicaVoxel @ Ephtracy

# group
o 

# material
mtllib Pipe.mtl
usemtl palette

# normals
vn -1 0 0
vn 1 0 0
vn 0 0 1
vn 0 0 -1
vn 0 -1 0
vn 0 1 0

# texcoords
vt 0.181641 0.5
vt 0.236328 0.5

# verts
v -0.2 0 0.0999999
v -0.2 0 -0.1
v -0.2 3.8 0.2
v -0.2 3.8 0.0999999
v -0.2 3.8 -0.1
v -0.2 3.8 -0.2
v -0.2 3.9 0.2
v -0.2 3.9 -0.2
v -0.0999999 0 0.2
v -0.0999999 0 0.0999999
v -0.0999999 0 -0.1
v -0.0999999 0 -0.2
v -0.0999999 0.4 0.2
v -0.0999999 0.4 0.0999999
v -0.0999999 0.5 0.2
v -0.0999999 0.5 0.0999999
v -0.0999999 1.2 -0.1
v -0.0999999 1.2 -0.2
v -0.0999999 1.3 -0.1
v -0.0999999 1.3 -0.2
v -0.0999999 1.6 -0.1
v -0.0999999 1.6 -0.2
v -0.0999999 1.7 -0.1
v -0.0999999 1.7 -0.2
v -0.0999999 2.4 0.2
v -0.0999999 2.4 0.0999999
v -0.0999999 2.5 0.2
v -0.0999999 2.5 0.0999999
v -0.0999999 3.2 -0.1
v -0.0999999 3.2 -0.2
v -0.0999999 3.3 -0.1
v -0.0999999 3.3 -0.2
v -0.0999999 3.8 0.2
v -0.0999999 3.8 0.0999999
v -0.0999999 3.8 -0.1
v -0.0999999 3.8 -0.2
v 0.1 0 0.0999999
v 0.1 0 -0.1
v 0.1 1.1 0.0999999
v 0.1 1.2 0.0999999
v 0.1 1.2 -5.96046e-08
v 0.1 1.3 -5.96046e-08
v 0.1 1.3 -0.1
v 0.1 1.4 0.0999999
v 0.1 1.4 -0.1
v 0.1 3.1 0.0999999
v 0.1 3.1 -5.96046e-08
v 0.1 3.2 0.0999999
v 0.1 3.2 -5.96046e-08
v 0.1 3.9 0.0999999
v 0.1 3.9 -0.1
v -0.0999999 0 0.0999999
v -0.0999999 0 -0.1
v -0.0999999 0.4 0.0999999
v -0.0999999 0.5 0.0999999
v -0.0999999 1.2 -0.1
v -0.0999999 1.3 -0.1
v -0.0999999 1.6 -0.1
v -0.0999999 1.7 -0.1
v -0.0999999 2.4 0.0999999
v -0.0999999 2.5 0.0999999
v -0.0999999 3.2 -0.1
v -0.0999999 3.3 -0.1
v -0.0999999 3.9 0.0999999
v -0.0999999 3.9 -0.1
v 0.1 0 0.2
v 0.1 0 0.0999999
v 0.1 0 -0.1
v 0.1 0 -0.2
v 0.1 1.1 0.2
v 0.1 1.1 0.0999999
v 0.1 1.2 0.2
v 0.1 1.2 0.0999999
v 0.1 1.3 -0.1
v 0.1 1.4 0.0999999
v 0.1 1.4 -0.1
v 0.1 3.1 0.2
v 0.1 3.1 0.0999999
v 0.1 3.2 0.2
v 0.1 3.2 0.0999999
v 0.1 3.8 0.2
v 0.1 3.8 0.0999999
v 0.1 3.8 -0.1
v 0.1 3.8 -0.2
v 0.2 0 0.0999999
v 0.2 0 -0.1
v 0.2 1.2 0.0999999
v 0.2 1.2 -5.96046e-08
v 0.2 1.3 -5.96046e-08
v 0.2 1.3 -0.1
v 0.2 1.4 0.0999999
v 0.2 1.4 -0.1
v 0.2 3.1 0.0999999
v 0.2 3.1 -5.96046e-08
v 0.2 3.2 0.0999999
v 0.2 3.2 -5.96046e-08
v 0.2 3.8 0.2
v 0.2 3.8 0.0999999
v 0.2 3.8 -0.1
v 0.2 3.8 -0.2
v 0.2 3.9 0.2
v 0.2 3.9 -0.2
v -0.2 3.8 0.2
v -0.2 3.9 0.2
v -0.0999999 0 0.2
v -0.0999999 0.4 0.2
v -0.0999999 0.5 0.2
v -0.0999999 2.4 0.2
v -0.0999999 2.5 0.2
v -0.0999999 3.8 0.2
v 5.96046e-08 0.4 0.2
v 5.96046e-08 0.5 0.2
v 5.96046e-08 1.1 0.2
v 5.96046e-08 1.2 0.2
v 5.96046e-08 2.4 0.2
v 5.96046e-08 2.5 0.2
v 5.96046e-08 3.1 0.2
v 5.96046e-08 3.2 0.2
v 0.1 0 0.2
v 0.1 1.1 0.2
v 0.1 1.2 0.2
v 0.1 3.1 0.2
v 0.1 3.2 0.2
v 0.1 3.8 0.2
v 0.2 3.8 0.2
v 0.2 3.9 0.2
v -0.2 0 0.0999999
v -0.2 3.8 0.0999999
v -0.0999999 0 0.0999999
v -0.0999999 0.4 0.0999999
v -0.0999999 0.5 0.0999999
v -0.0999999 2.4 0.0999999
v -0.0999999 2.5 0.0999999
v -0.0999999 3.8 0.0999999
v 0.1 0 0.0999999
v 0.1 1.1 0.0999999
v 0.1 1.2 0.0999999
v 0.1 1.4 0.0999999
v 0.1 3.1 0.0999999
v 0.1 3.2 0.0999999
v 0.1 3.8 0.0999999
v 0.2 0 0.0999999
v 0.2 1.2 0.0999999
v 0.2 1.4 0.0999999
v 0.2 3.1 0.0999999
v 0.2 3.2 0.0999999
v 0.2 3.8 0.0999999
v -0.0999999 0 -0.1
v -0.0999999 1.2 -0.1
v -0.0999999 1.3 -0.1
v -0.0999999 1.6 -0.1
v -0.0999999 1.7 -0.1
v -0.0999999 3.2 -0.1
v -0.0999999 3.3 -0.1
v -0.0999999 3.9 -0.1
v 5.96046e-08 1.2 -0.1
v 5.96046e-08 1.3 -0.1
v 5.96046e-08 1.6 -0.1
v 5.96046e-08 1.7 -0.1
v 5.96046e-08 3.2 -0.1
v 5.96046e-08 3.3 -0.1
v 0.1 0 -0.1
v 0.1 1.3 -0.1
v 0.1 1.4 -0.1
v 0.1 3.9 -0.1
v -0.0999999 0 0.0999999
v -0.0999999 0.4 0.0999999
v -0.0999999 0.5 0.0999999
v -0.0999999 2.4 0.0999999
v -0.0999999 2.5 0.0999999
v -0.0999999 3.9 0.0999999
v 5.96046e-08 0.4 0.0999999
v 5.96046e-08 0.5 0.0999999
v 5.96046e-08 1.1 0.0999999
v 5.96046e-08 1.2 0.0999999
v 5.96046e-08 2.4 0.0999999
v 5.96046e-08 2.5 0.0999999
v 5.96046e-08 3.1 0.0999999
v 5.96046e-08 3.2 0.0999999
v 0.1 0 0.0999999
v 0.1 1.1 0.0999999
v 0.1 1.2 0.0999999
v 0.1 1.4 0.0999999
v 0.1 3.1 0.0999999
v 0.1 3.2 0.0999999
v 0.1 3.9 0.0999999
v -0.2 0 -0.1
v -0.2 3.8 -0.1
v -0.0999999 0 -0.1
v -0.0999999 1.2 -0.1
v -0.0999999 1.3 -0.1
v -0.0999999 1.6 -0.1
v -0.0999999 1.7 -0.1
v -0.0999999 3.2 -0.1
v -0.0999999 3.3 -0.1
v -0.0999999 3.8 -0.1
v 0.1 0 -0.1
v 0.1 1.3 -0.1
v 0.1 1.4 -0.1
v 0.1 3.8 -0.1
v 0.2 0 -0.1
v 0.2 1.3 -0.1
v 0.2 1.4 -0.1
v 0.2 3.8 -0.1
v -0.2 3.8 -0.2
v -0.2 3.9 -0.2
v -0.0999999 0 -0.2
v -0.0999999 1.2 -0.2
v -0.0999999 1.3 -0.2
v -0.0999999 1.6 -0.2
v -0.0999999 1.7 -0.2
v -0.0999999 3.2 -0.2
v -0.0999999 3.3 -0.2
v -0.0999999 3.8 -0.2
v 5.96046e-08 1.2 -0.2
v 5.96046e-08 1.3 -0.2
v 5.96046e-08 1.6 -0.2
v 5.96046e-08 1.7 -0.2
v 5.96046e-08 3.2 -0.2
v 5.96046e-08 3.3 -0.2
v 0.1 0 -0.2
v 0.1 3.8 -0.2
v 0.2 3.8 -0.2
v 0.2 3.9 -0.2
v -0.0999999 0 0.2
v 0.1 0 0.2
v -0.2 0 0.0999999
v -0.0999999 0 0.0999999
v 0.1 0 0.0999999
v 0.2 0 0.0999999
v -0.2 0 -0.1
v -0.0999999 0 -0.1
v 0.1 0 -0.1
v 0.2 0 -0.1
v -0.0999999 0 -0.2
v 0.1 0 -0.2
v -0.2 3.8 0.2
v -0.0999999 3.8 0.2
v 0.1 3.8 0.2
v 0.2 3.8 0.2
v -0.2 3.8 0.0999999
v -0.0999999 3.8 0.0999999
v 0.1 3.8 0.0999999
v 0.2 3.8 0.0999999
v -0.2 3.8 -0.1
v -0.0999999 3.8 -0.1
v 0.1 3.8 -0.1
v 0.2 3.8 -0.1
v -0.2 3.8 -0.2
v -0.0999999 3.8 -0.2
v 0.1 3.8 -0.2
v 0.2 3.8 -0.2
v -0.2 3.9 0.2
v 0.2 3.9 0.2
v -0.0999999 3.9 0.0999999
v 0.1 3.9 0.0999999
v -0.0999999 3.9 -0.1
v 0.1 3.9 -0.1
v -0.2 3.9 -0.2
v 0.2 3.9 -0.2

# faces
f 4/2/1 2/2/1 1/2/1
f 5/2/1 2/2/1 4/2/1
f 7/2/1 4/2/1 3/2/1
f 7/2/1 6/2/1 5/2/1
f 7/2/1 5/2/1 4/2/1
f 8/2/1 6/2/1 7/2/1
f 13/2/1 10/2/1 9/2/1
f 14/2/1 10/2/1 13/2/1
f 15/1/1 14/1/1 13/1/1
f 16/1/1 14/1/1 15/1/1
f 17/2/1 12/2/1 11/2/1
f 18/2/1 12/2/1 17/2/1
f 19/1/1 18/1/1 17/1/1
f 20/1/1 18/1/1 19/1/1
f 21/2/1 20/2/1 19/2/1
f 22/2/1 20/2/1 21/2/1
f 23/1/1 22/1/1 21/1/1
f 24/1/1 22/1/1 23/1/1
f 25/2/1 16/2/1 15/2/1
f 26/2/1 16/2/1 25/2/1
f 27/1/1 26/1/1 25/1/1
f 28/1/1 26/1/1 27/1/1
f 29/2/1 24/2/1 23/2/1
f 30/2/1 24/2/1 29/2/1
f 31/1/1 30/1/1 29/1/1
f 32/1/1 30/1/1 31/1/1
f 33/2/1 28/2/1 27/2/1
f 34/2/1 28/2/1 33/2/1
f 35/2/1 32/2/1 31/2/1
f 36/2/1 32/2/1 35/2/1
f 39/2/1 38/2/1 37/2/1
f 40/2/1 38/2/1 39/2/1
f 41/2/1 38/2/1 40/2/1
f 42/1/1 41/1/1 40/1/1
f 42/2/1 38/2/1 41/2/1
f 43/2/1 38/2/1 42/2/1
f 44/1/1 42/1/1 40/1/1
f 44/1/1 43/1/1 42/1/1
f 45/1/1 43/1/1 44/1/1
f 46/2/1 45/2/1 44/2/1
f 47/2/1 45/2/1 46/2/1
f 48/1/1 47/1/1 46/1/1
f 49/2/1 45/2/1 47/2/1
f 49/1/1 47/1/1 48/1/1
f 50/2/1 49/2/1 48/2/1
f 51/2/1 45/2/1 49/2/1
f 51/2/1 49/2/1 50/2/1
f 52/2/2 53/2/2 54/2/2
f 54/2/2 53/2/2 55/2/2
f 55/2/2 53/2/2 56/2/2
f 55/2/2 56/2/2 57/2/2
f 55/2/2 57/2/2 58/2/2
f 55/2/2 58/2/2 59/2/2
f 55/2/2 59/2/2 60/2/2
f 60/2/2 59/2/2 61/2/2
f 61/2/2 59/2/2 62/2/2
f 61/2/2 62/2/2 63/2/2
f 61/2/2 63/2/2 64/2/2
f 64/2/2 63/2/2 65/2/2
f 66/2/2 67/2/2 70/2/2
f 70/2/2 67/2/2 71/2/2
f 70/1/2 71/1/2 72/1/2
f 72/1/2 71/1/2 73/1/2
f 68/2/2 69/2/2 74/2/2
f 72/2/2 73/2/2 75/2/2
f 74/2/2 69/2/2 76/2/2
f 72/2/2 75/2/2 77/2/2
f 77/2/2 75/2/2 78/2/2
f 77/1/2 78/1/2 79/1/2
f 79/1/2 78/1/2 80/1/2
f 79/2/2 80/2/2 81/2/2
f 81/2/2 80/2/2 82/2/2
f 76/2/2 69/2/2 83/2/2
f 83/2/2 69/2/2 84/2/2
f 85/2/2 86/2/2 87/2/2
f 87/2/2 86/2/2 88/2/2
f 87/1/2 88/1/2 89/1/2
f 88/2/2 86/2/2 89/2/2
f 89/2/2 86/2/2 90/2/2
f 87/1/2 89/1/2 91/1/2
f 89/1/2 90/1/2 91/1/2
f 91/1/2 90/1/2 92/1/2
f 91/2/2 92/2/2 93/2/2
f 93/2/2 92/2/2 94/2/2
f 93/1/2 94/1/2 95/1/2
f 94/2/2 92/2/2 96/2/2
f 95/1/2 94/1/2 96/1/2
f 95/2/2 96/2/2 98/2/2
f 96/2/2 92/2/2 99/2/2
f 98/2/2 96/2/2 99/2/2
f 98/2/2 99/2/2 101/2/2
f 99/2/2 100/2/2 101/2/2
f 97/2/2 98/2/2 101/2/2
f 101/2/2 100/2/2 102/2/2
f 110/2/3 104/2/3 103/2/3
f 111/2/3 106/2/3 105/2/3
f 111/1/3 107/1/3 106/1/3
f 112/2/3 108/2/3 107/2/3
f 112/1/3 107/1/3 111/1/3
f 113/2/3 108/2/3 112/2/3
f 114/2/3 108/2/3 113/2/3
f 115/1/3 109/1/3 108/1/3
f 115/2/3 108/2/3 114/2/3
f 116/2/3 110/2/3 109/2/3
f 116/1/3 109/1/3 115/1/3
f 117/2/3 110/2/3 116/2/3
f 118/2/3 110/2/3 117/2/3
f 119/2/3 111/2/3 105/2/3
f 119/2/3 112/2/3 111/2/3
f 119/2/3 113/2/3 112/2/3
f 120/1/3 114/1/3 113/1/3
f 120/2/3 113/2/3 119/2/3
f 121/2/3 115/2/3 114/2/3
f 121/1/3 114/1/3 120/1/3
f 121/2/3 117/2/3 116/2/3
f 121/2/3 116/2/3 115/2/3
f 122/1/3 118/1/3 117/1/3
f 122/2/3 117/2/3 121/2/3
f 123/2/3 110/2/3 118/2/3
f 123/1/3 118/1/3 122/1/3
f 124/2/3 104/2/3 110/2/3
f 124/2/3 110/2/3 123/2/3
f 125/2/3 104/2/3 124/2/3
f 126/2/3 104/2/3 125/2/3
f 129/2/3 128/2/3 127/2/3
f 130/2/3 128/2/3 129/2/3
f 131/2/3 128/2/3 130/2/3
f 132/2/3 128/2/3 131/2/3
f 133/2/3 128/2/3 132/2/3
f 134/2/3 128/2/3 133/2/3
f 142/2/3 136/2/3 135/2/3
f 142/2/3 137/2/3 136/2/3
f 143/1/3 138/1/3 137/1/3
f 143/2/3 137/2/3 142/2/3
f 144/2/3 139/2/3 138/2/3
f 144/1/3 138/1/3 143/1/3
f 145/1/3 140/1/3 139/1/3
f 145/2/3 139/2/3 144/2/3
f 146/2/3 141/2/3 140/2/3
f 146/1/3 140/1/3 145/1/3
f 147/2/3 141/2/3 146/2/3
f 156/2/3 149/2/3 148/2/3
f 156/1/3 150/1/3 149/1/3
f 157/2/3 151/2/3 150/2/3
f 157/1/3 150/1/3 156/1/3
f 158/1/3 152/1/3 151/1/3
f 158/2/3 151/2/3 157/2/3
f 159/2/3 153/2/3 152/2/3
f 159/1/3 152/1/3 158/1/3
f 160/1/3 154/1/3 153/1/3
f 160/2/3 153/2/3 159/2/3
f 161/2/3 155/2/3 154/2/3
f 161/1/3 154/1/3 160/1/3
f 162/2/3 160/2/3 159/2/3
f 162/2/3 159/2/3 158/2/3
f 162/2/3 161/2/3 160/2/3
f 162/2/3 158/2/3 157/2/3
f 162/2/3 157/2/3 156/2/3
f 162/2/3 156/2/3 148/2/3
f 163/2/3 161/2/3 162/2/3
f 164/2/3 161/2/3 163/2/3
f 165/2/3 155/2/3 161/2/3
f 165/2/3 161/2/3 164/2/3
f 166/2/4 167/2/4 172/2/4
f 167/1/4 168/1/4 172/1/4
f 168/2/4 169/2/4 173/2/4
f 172/1/4 168/1/4 173/1/4
f 173/2/4 169/2/4 174/2/4
f 174/2/4 169/2/4 175/2/4
f 169/1/4 170/1/4 176/1/4
f 175/2/4 169/2/4 176/2/4
f 170/2/4 171/2/4 177/2/4
f 176/1/4 170/1/4 177/1/4
f 177/2/4 171/2/4 178/2/4
f 178/2/4 171/2/4 179/2/4
f 166/2/4 172/2/4 180/2/4
f 172/2/4 173/2/4 180/2/4
f 173/2/4 174/2/4 180/2/4
f 174/1/4 175/1/4 181/1/4
f 180/2/4 174/2/4 181/2/4
f 175/2/4 176/2/4 182/2/4
f 181/1/4 175/1/4 182/1/4
f 177/2/4 178/2/4 182/2/4
f 176/2/4 177/2/4 182/2/4
f 182/2/4 178/2/4 183/2/4
f 178/1/4 179/1/4 184/1/4
f 183/2/4 178/2/4 184/2/4
f 179/2/4 171/2/4 185/2/4
f 184/1/4 179/1/4 185/1/4
f 185/2/4 171/2/4 186/2/4
f 187/2/4 188/2/4 189/2/4
f 189/2/4 188/2/4 190/2/4
f 190/2/4 188/2/4 191/2/4
f 191/2/4 188/2/4 192/2/4
f 192/2/4 188/2/4 193/2/4
f 193/2/4 188/2/4 194/2/4
f 194/2/4 188/2/4 195/2/4
f 195/2/4 188/2/4 196/2/4
f 197/2/4 198/2/4 201/2/4
f 198/1/4 199/1/4 202/1/4
f 201/2/4 198/2/4 202/2/4
f 199/2/4 200/2/4 203/2/4
f 202/1/4 199/1/4 203/1/4
f 203/2/4 200/2/4 204/2/4
f 205/2/4 206/2/4 214/2/4
f 207/2/4 208/2/4 215/2/4
f 208/1/4 209/1/4 215/1/4
f 209/2/4 210/2/4 216/2/4
f 215/1/4 209/1/4 216/1/4
f 210/1/4 211/1/4 217/1/4
f 216/2/4 210/2/4 217/2/4
f 211/2/4 212/2/4 218/2/4
f 217/1/4 211/1/4 218/1/4
f 212/1/4 213/1/4 219/1/4
f 218/2/4 212/2/4 219/2/4
f 213/2/4 214/2/4 220/2/4
f 219/1/4 213/1/4 220/1/4
f 217/2/4 218/2/4 221/2/4
f 218/2/4 219/2/4 221/2/4
f 219/2/4 220/2/4 221/2/4
f 207/2/4 215/2/4 221/2/4
f 216/2/4 217/2/4 221/2/4
f 215/2/4 216/2/4 221/2/4
f 220/2/4 214/2/4 222/2/4
f 221/2/4 220/2/4 222/2/4
f 214/2/4 206/2/4 222/2/4
f 222/2/4 206/2/4 223/2/4
f 223/2/4 206/2/4 224/2/4
f 228/2/5 226/2/5 225/2/5
f 229/2/5 226/2/5 228/2/5
f 231/2/5 228/2/5 227/2/5
f 232/2/5 228/2/5 231/2/5
f 233/2/5 230/2/5 229/2/5
f 234/2/5 230/2/5 233/2/5
f 235/2/5 233/2/5 232/2/5
f 236/2/5 233/2/5 235/2/5
f 241/2/5 238/2/5 237/2/5
f 242/2/5 238/2/5 241/2/5
f 243/2/5 240/2/5 239/2/5
f 244/2/5 240/2/5 243/2/5
f 249/2/5 246/2/5 245/2/5
f 250/2/5 246/2/5 249/2/5
f 251/2/5 248/2/5 247/2/5
f 252/2/5 248/2/5 251/2/5
f 253/2/6 254/2/6 255/2/6
f 255/2/6 254/2/6 256/2/6
f 253/2/6 255/2/6 257/2/6
f 256/2/6 254/2/6 258/2/6
f 253/2/6 257/2/6 259/2/6
f 257/2/6 258/2/6 259/2/6
f 258/2/6 254/2/6 260/2/6
f 259/2/6 258/2/6 260/2/6
