# MagicaVoxel @ Ephtracy

# group
o 

# material
mtllib pp-0.mtl
usemtl palette

# normals
vn -1 0 0
vn 1 0 0
vn 0 0 1
vn 0 0 -1
vn 0 -1 0
vn 0 1 0

# texcoords
vt 0.177734 0.5
vt 0.181641 0.5
vt 0.236328 0.5
vt 0.244141 0.5
vt 0.275391 0.5
vt 0.306641 0.5

# verts
v 1.4 3.1 -1.7
v 1.4 3.1 -2
v 1.4 3.7 -1.8
v 1.4 3.7 -2
v 1.4 3.8 -1.8
v 1.4 3.8 -2
v 1.4 4 -1.7
v 1.4 4 -2
v 1.6 3.3 -1.7
v 1.6 3.3 -1.8
v 1.6 3.3 -1.9
v 1.6 3.3 -2
v 1.6 3.7 -1.7
v 1.6 3.7 -1.8
v 1.6 3.7 -1.9
v 1.6 3.7 -2
v 1.9 3.3 -1.7
v 1.9 3.3 -1.8
v 1.9 3.3 -1.9
v 1.9 3.3 -2
v 1.9 3.7 -1.7
v 1.9 3.7 -1.8
v 1.9 3.7 -1.9
v 1.9 3.7 -2
v 1.5 3.3 -1.7
v 1.5 3.3 -1.8
v 1.5 3.3 -1.9
v 1.5 3.3 -2
v 1.5 3.7 -1.7
v 1.5 3.7 -1.8
v 1.5 3.7 -1.9
v 1.5 3.7 -2
v 1.8 3.3 -1.7
v 1.8 3.3 -1.8
v 1.8 3.3 -1.9
v 1.8 3.3 -2
v 1.8 3.7 -1.7
v 1.8 3.7 -1.8
v 1.8 3.7 -1.9
v 1.8 3.7 -2
v 2 3.1 -1.7
v 2 3.1 -2
v 2 3.9 -1.8
v 2 3.9 -1.9
v 2 4 -1.7
v 2 4 -1.8
v 2 4 -1.9
v 2 4 -2
v 1.4 3.1 -1.7
v 1.4 4 -1.7
v 1.5 3.3 -1.7
v 1.5 3.7 -1.7
v 1.6 3.3 -1.7
v 1.6 3.7 -1.7
v 1.8 3.3 -1.7
v 1.8 3.7 -1.7
v 1.9 3.3 -1.7
v 1.9 3.7 -1.7
v 2 3.1 -1.7
v 2 4 -1.7
v 1.5 3.3 -1.8
v 1.5 3.7 -1.8
v 1.6 3.3 -1.8
v 1.6 3.7 -1.8
v 1.8 3.3 -1.8
v 1.8 3.7 -1.8
v 1.9 3.3 -1.8
v 1.9 3.7 -1.8
v 1.5 3.3 -1.9
v 1.5 3.7 -1.9
v 1.6 3.3 -1.9
v 1.6 3.7 -1.9
v 1.8 3.3 -1.9
v 1.8 3.7 -1.9
v 1.9 3.3 -1.9
v 1.9 3.7 -1.9
v 1.4 3.1 -2
v 1.4 3.7 -2
v 1.4 3.8 -2
v 1.4 4 -2
v 1.5 3.3 -2
v 1.5 3.7 -2
v 1.5 3.8 -2
v 1.6 3.3 -2
v 1.6 3.7 -2
v 1.8 3.3 -2
v 1.8 3.7 -2
v 1.9 3.3 -2
v 1.9 3.7 -2
v 2 3.1 -2
v 2 4 -2
v 1.4 3.1 -1.7
v 2 3.1 -1.7
v 1.4 3.1 -2
v 2 3.1 -2
v 1.5 3.7 -1.7
v 1.6 3.7 -1.7
v 1.8 3.7 -1.7
v 1.9 3.7 -1.7
v 1.5 3.7 -1.8
v 1.6 3.7 -1.8
v 1.8 3.7 -1.8
v 1.9 3.7 -1.8
v 1.5 3.7 -1.9
v 1.6 3.7 -1.9
v 1.8 3.7 -1.9
v 1.9 3.7 -1.9
v 1.5 3.7 -2
v 1.6 3.7 -2
v 1.8 3.7 -2
v 1.9 3.7 -2
v 1.5 3.3 -1.7
v 1.6 3.3 -1.7
v 1.8 3.3 -1.7
v 1.9 3.3 -1.7
v 1.5 3.3 -1.8
v 1.6 3.3 -1.8
v 1.8 3.3 -1.8
v 1.9 3.3 -1.8
v 1.5 3.3 -1.9
v 1.6 3.3 -1.9
v 1.8 3.3 -1.9
v 1.9 3.3 -1.9
v 1.5 3.3 -2
v 1.6 3.3 -2
v 1.8 3.3 -2
v 1.9 3.3 -2
v 1.4 4 -1.7
v 2 4 -1.7
v 1.5 4 -1.8
v 1.8 4 -1.8
v 1.9 4 -1.8
v 2 4 -1.8
v 1.5 4 -1.9
v 1.8 4 -1.9
v 1.9 4 -1.9
v 2 4 -1.9
v 1.4 4 -2
v 2 4 -2

# faces
f 3/6/1 2/6/1 1/6/1
f 4/6/1 2/6/1 3/6/1
f 5/6/1 3/6/1 1/6/1
f 5/5/1 4/5/1 3/5/1
f 6/5/1 4/5/1 5/5/1
f 7/6/1 5/6/1 1/6/1
f 7/6/1 6/6/1 5/6/1
f 8/6/1 6/6/1 7/6/1
f 13/6/1 10/6/1 9/6/1
f 14/6/1 10/6/1 13/6/1
f 15/6/1 12/6/1 11/6/1
f 16/6/1 12/6/1 15/6/1
f 21/6/1 18/6/1 17/6/1
f 22/6/1 18/6/1 21/6/1
f 23/6/1 20/6/1 19/6/1
f 24/6/1 20/6/1 23/6/1
f 25/6/2 26/6/2 29/6/2
f 29/6/2 26/6/2 30/6/2
f 27/6/2 28/6/2 31/6/2
f 31/6/2 28/6/2 32/6/2
f 33/6/2 34/6/2 37/6/2
f 37/6/2 34/6/2 38/6/2
f 35/6/2 36/6/2 39/6/2
f 39/6/2 36/6/2 40/6/2
f 41/6/2 42/6/2 43/6/2
f 43/6/2 42/6/2 44/6/2
f 41/6/2 43/6/2 45/6/2
f 43/4/2 44/4/2 46/4/2
f 45/6/2 43/6/2 46/6/2
f 44/6/2 42/6/2 47/6/2
f 46/4/2 44/4/2 47/4/2
f 47/6/2 42/6/2 48/6/2
f 51/6/3 50/6/3 49/6/3
f 52/6/3 50/6/3 51/6/3
f 53/6/3 51/6/3 49/6/3
f 54/6/3 50/6/3 52/6/3
f 55/6/3 53/6/3 49/6/3
f 55/6/3 54/6/3 53/6/3
f 56/6/3 50/6/3 54/6/3
f 56/6/3 54/6/3 55/6/3
f 57/6/3 55/6/3 49/6/3
f 58/6/3 50/6/3 56/6/3
f 59/6/3 57/6/3 49/6/3
f 59/6/3 58/6/3 57/6/3
f 60/6/3 50/6/3 58/6/3
f 60/6/3 58/6/3 59/6/3
f 63/3/3 62/3/3 61/3/3
f 64/3/3 62/3/3 63/3/3
f 67/3/3 66/3/3 65/3/3
f 68/3/3 66/3/3 67/3/3
f 69/3/4 70/3/4 71/3/4
f 71/3/4 70/3/4 72/3/4
f 73/3/4 74/3/4 75/3/4
f 75/3/4 74/3/4 76/3/4
f 77/6/4 78/6/4 81/6/4
f 78/5/4 79/5/4 82/5/4
f 81/6/4 78/6/4 82/6/4
f 79/6/4 80/6/4 83/6/4
f 82/5/4 79/5/4 83/5/4
f 77/6/4 81/6/4 84/6/4
f 82/6/4 83/6/4 85/6/4
f 77/6/4 84/6/4 86/6/4
f 84/6/4 85/6/4 86/6/4
f 85/6/4 83/6/4 87/6/4
f 86/6/4 85/6/4 87/6/4
f 77/6/4 86/6/4 88/6/4
f 87/6/4 83/6/4 89/6/4
f 77/6/4 88/6/4 90/6/4
f 88/6/4 89/6/4 90/6/4
f 83/6/4 80/6/4 91/6/4
f 90/6/4 89/6/4 91/6/4
f 89/6/4 83/6/4 91/6/4
f 94/6/5 93/6/5 92/6/5
f 95/6/5 93/6/5 94/6/5
f 100/6/5 97/6/5 96/6/5
f 101/6/5 97/6/5 100/6/5
f 102/6/5 99/6/5 98/6/5
f 103/6/5 99/6/5 102/6/5
f 108/6/5 105/6/5 104/6/5
f 109/6/5 105/6/5 108/6/5
f 110/6/5 107/6/5 106/6/5
f 111/6/5 107/6/5 110/6/5
f 112/6/6 113/6/6 116/6/6
f 116/6/6 113/6/6 117/6/6
f 114/6/6 115/6/6 118/6/6
f 118/6/6 115/6/6 119/6/6
f 120/6/6 121/6/6 124/6/6
f 124/6/6 121/6/6 125/6/6
f 122/6/6 123/6/6 126/6/6
f 126/6/6 123/6/6 127/6/6
f 128/6/6 129/6/6 130/6/6
f 130/6/6 129/6/6 131/6/6
f 131/6/6 129/6/6 132/6/6
f 132/6/6 129/6/6 133/6/6
f 128/6/6 130/6/6 134/6/6
f 130/1/6 131/1/6 134/1/6
f 131/2/6 132/2/6 135/2/6
f 134/1/6 131/1/6 135/1/6
f 132/4/6 133/4/6 136/4/6
f 135/2/6 132/2/6 136/2/6
f 136/4/6 133/4/6 137/4/6
f 134/6/6 135/6/6 138/6/6
f 128/6/6 134/6/6 138/6/6
f 136/6/6 137/6/6 138/6/6
f 135/6/6 136/6/6 138/6/6
f 138/6/6 137/6/6 139/6/6
