# MagicaVoxel @ Ephtracy

# group
o 

# material
mtllib pp-2.mtl
usemtl palette

# normals
vn -1 0 0
vn 1 0 0
vn 0 0 1
vn 0 0 -1
vn 0 -1 0
vn 0 1 0

# texcoords
vt 0.181641 0.5
vt 0.236328 0.5
vt 0.244141 0.5
vt 0.275391 0.5
vt 0.306641 0.5

# verts
v 28.7 4.5 -2.9
v 28.7 4.5 -3
v 28.7 4.6 -2.8
v 28.7 4.6 -2.9
v 28.7 4.6 -3
v 28.7 4.6 -3.1
v 28.7 5.5 -2.8
v 28.7 5.5 -3.1
v 30.7 4.9 -2.8
v 30.7 4.9 -3.1
v 30.7 5.1 -2.9
v 30.7 5.1 -3
v 30.7 5.2 -2.7
v 30.7 5.2 -2.8
v 30.7 5.2 -2.9
v 30.7 5.2 -3.1
v 30.7 5.2 -3.2
v 30.7 5.3 -2.8
v 30.7 5.3 -2.9
v 30.7 5.3 -3
v 30.7 5.4 -2.7
v 30.7 5.4 -2.8
v 30.7 5.4 -3.1
v 30.7 5.4 -3.2
v 30.7 5.6 -2.8
v 30.7 5.6 -2.9
v 30.7 5.6 -3
v 30.7 5.6 -3.1
v 30.7 5.7 -2.8
v 30.7 5.7 -2.9
v 30.7 5.7 -3
v 30.7 5.7 -3.1
v 30.8 4.7 -2.9
v 30.8 4.7 -3
v 30.8 4.8 -2.8
v 30.8 4.8 -2.9
v 30.8 4.8 -3
v 30.8 4.8 -3.1
v 30.8 4.9 -2.7
v 30.8 4.9 -2.8
v 30.8 4.9 -3.1
v 30.8 4.9 -3.2
v 30.8 5.2 -2.7
v 30.8 5.2 -2.8
v 30.8 5.2 -3.1
v 30.8 5.2 -3.2
v 30.8 5.4 -2.7
v 30.8 5.4 -2.8
v 30.8 5.4 -3.1
v 30.8 5.4 -3.2
v 30.8 5.5 -2.7
v 30.8 5.5 -2.8
v 30.8 5.5 -3.1
v 30.8 5.5 -3.2
v 31.9 4.1 -2.8
v 31.9 4.1 -3.1
v 31.9 4.8 -2.7
v 31.9 4.8 -2.8
v 31.9 4.8 -3.1
v 31.9 4.8 -3.2
v 31.9 4.9 -2.7
v 31.9 4.9 -2.8
v 31.9 4.9 -3.1
v 31.9 4.9 -3.2
v 32 4.1 -2.7
v 32 4.1 -2.8
v 32 4.1 -3.1
v 32 4.1 -3.2
v 32 4.8 -2.7
v 32 4.8 -2.8
v 32 4.8 -3.1
v 32 4.8 -3.2
v 32.6 4.1 -2.9
v 32.6 4.1 -3
v 32.6 4.3 -2.9
v 32.6 4.3 -3
v 32.6 5.2 -2.7
v 32.6 5.2 -2.8
v 32.6 5.3 -2.7
v 32.6 5.3 -2.8
v 32.6 5.4 -2.7
v 32.6 5.4 -2.8
v 32.8 4.9 -2.9
v 32.8 4.9 -3.1
v 32.8 5.1 -2.9
v 32.8 5.1 -3.1
v 33 4.8 -2.7
v 33 4.8 -3.2
v 33 4.9 -2.7
v 33 4.9 -3.2
v 33.1 4.9 -2.7
v 33.1 4.9 -3.2
v 33.1 5.1 -2.7
v 33.1 5.1 -3.2
v 34.1 5.6 -2.9
v 34.1 5.6 -3
v 34.1 5.7 -2.9
v 34.1 5.7 -3
v 28.8 4.5 -2.9
v 28.8 4.5 -3
v 28.8 4.6 -2.8
v 28.8 4.6 -2.9
v 28.8 4.6 -3
v 28.8 4.6 -3.1
v 28.8 5.4 -2.9
v 28.8 5.4 -3
v 28.8 5.5 -2.8
v 28.8 5.5 -3.1
v 28.9 4.6 -2.9
v 28.9 4.6 -3
v 28.9 5.1 -2.9
v 28.9 5.1 -3
v 28.9 5.3 -2.9
v 28.9 5.3 -3
v 28.9 5.4 -2.9
v 28.9 5.4 -3
v 30.8 5.6 -2.8
v 30.8 5.6 -2.9
v 30.8 5.6 -3
v 30.8 5.6 -3.1
v 30.8 5.7 -2.8
v 30.8 5.7 -2.9
v 30.8 5.7 -3
v 30.8 5.7 -3.1
v 31 4.7 -2.9
v 31 4.7 -3
v 31 4.8 -2.9
v 31 4.8 -3
v 32 4.1 -2.9
v 32 4.1 -3
v 32 4.3 -2.9
v 32 4.3 -3
v 32 5.2 -2.7
v 32 5.2 -2.8
v 32 5.3 -2.7
v 32 5.3 -2.8
v 32 5.4 -2.7
v 32 5.4 -2.8
v 32.6 4.1 -2.7
v 32.6 4.1 -2.8
v 32.6 4.1 -3.1
v 32.6 4.1 -3.2
v 32.6 4.7 -2.7
v 32.6 4.7 -2.8
v 32.6 4.7 -3.1
v 32.6 4.7 -3.2
v 32.7 4.1 -2.8
v 32.7 4.1 -3.1
v 32.7 4.7 -2.8
v 32.7 4.7 -3.1
v 32.7 4.8 -2.7
v 32.7 4.8 -3.2
v 32.7 5.1 -2.7
v 32.7 5.1 -3.2
v 32.9 4.9 -2.9
v 32.9 4.9 -3.1
v 32.9 5.1 -2.9
v 32.9 5.1 -3.1
v 33 4.7 -2.7
v 33 4.7 -3.2
v 33 4.8 -2.7
v 33 4.8 -3.2
v 33.1 4.8 -2.7
v 33.1 4.8 -2.8
v 33.1 4.8 -3.1
v 33.1 4.8 -3.2
v 33.1 4.9 -2.7
v 33.1 4.9 -2.8
v 33.1 4.9 -3.1
v 33.1 4.9 -3.2
v 33.2 4.8 -2.8
v 33.2 4.8 -3.1
v 33.2 4.9 -2.7
v 33.2 4.9 -2.8
v 33.2 4.9 -3.1
v 33.2 4.9 -3.2
v 33.2 5 -2.7
v 33.2 5 -2.8
v 33.2 5 -3.1
v 33.2 5 -3.2
v 33.3 4.9 -2.8
v 33.3 4.9 -3.1
v 33.3 5 -2.7
v 33.3 5 -2.8
v 33.3 5 -3.1
v 33.3 5 -3.2
v 33.3 5.1 -2.7
v 33.3 5.1 -2.8
v 33.3 5.1 -3.1
v 33.3 5.1 -3.2
v 33.8 5.3 -2.9
v 33.8 5.3 -3
v 33.8 5.4 -2.9
v 33.8 5.4 -3
v 34.1 5 -2.8
v 34.1 5 -3.1
v 34.1 5.1 -2.7
v 34.1 5.1 -2.8
v 34.1 5.1 -3.1
v 34.1 5.1 -3.2
v 34.1 5.2 -2.7
v 34.1 5.2 -2.8
v 34.1 5.2 -3.1
v 34.1 5.2 -3.2
v 34.2 5.1 -2.8
v 34.2 5.1 -3.1
v 34.2 5.2 -2.7
v 34.2 5.2 -2.8
v 34.2 5.2 -3.1
v 34.2 5.2 -3.2
v 34.2 5.3 -2.7
v 34.2 5.3 -2.8
v 34.2 5.3 -2.9
v 34.2 5.3 -3
v 34.2 5.3 -3.1
v 34.2 5.3 -3.2
v 34.2 5.4 -2.9
v 34.2 5.4 -3
v 34.2 5.5 -2.7
v 34.2 5.5 -2.8
v 34.2 5.5 -3.1
v 34.2 5.5 -3.2
v 34.2 5.6 -2.8
v 34.2 5.6 -2.9
v 34.2 5.6 -3
v 34.2 5.6 -3.1
v 34.2 5.7 -2.9
v 34.2 5.7 -3
v 30.7 5.2 -2.7
v 30.7 5.4 -2.7
v 30.8 4.9 -2.7
v 30.8 5.2 -2.7
v 30.8 5.3 -2.7
v 30.8 5.4 -2.7
v 30.8 5.5 -2.7
v 31.9 4.8 -2.7
v 31.9 4.9 -2.7
v 32 4.1 -2.7
v 32 4.8 -2.7
v 32 5.2 -2.7
v 32 5.3 -2.7
v 32 5.4 -2.7
v 32.6 4.1 -2.7
v 32.6 4.7 -2.7
v 32.6 5.2 -2.7
v 32.6 5.3 -2.7
v 32.6 5.4 -2.7
v 32.7 4.8 -2.7
v 32.7 5.1 -2.7
v 33 4.7 -2.7
v 33 4.8 -2.7
v 33 4.9 -2.7
v 33.1 4.8 -2.7
v 33.1 4.9 -2.7
v 33.1 5.1 -2.7
v 33.2 4.9 -2.7
v 33.2 5 -2.7
v 33.3 5 -2.7
v 33.3 5.1 -2.7
v 34.1 5.1 -2.7
v 34.1 5.2 -2.7
v 34.2 5.2 -2.7
v 34.2 5.3 -2.7
v 34.2 5.5 -2.7
v 28.7 4.6 -2.8
v 28.7 5.5 -2.8
v 28.8 4.6 -2.8
v 28.8 5.5 -2.8
v 30.7 4.9 -2.8
v 30.7 5.2 -2.8
v 30.7 5.4 -2.8
v 30.7 5.6 -2.8
v 30.7 5.7 -2.8
v 30.8 4.8 -2.8
v 30.8 4.9 -2.8
v 30.8 5.2 -2.8
v 30.8 5.4 -2.8
v 30.8 5.5 -2.8
v 30.8 5.6 -2.8
v 30.8 5.7 -2.8
v 31.9 4.1 -2.8
v 31.9 4.8 -2.8
v 31.9 4.9 -2.8
v 32 4.1 -2.8
v 32 4.8 -2.8
v 32 5.2 -2.8
v 32 5.3 -2.8
v 32 5.4 -2.8
v 32.6 4.1 -2.8
v 32.6 4.7 -2.8
v 32.6 5.2 -2.8
v 32.6 5.3 -2.8
v 32.6 5.4 -2.8
v 32.7 4.1 -2.8
v 32.7 4.7 -2.8
v 33.1 4.8 -2.8
v 33.1 4.9 -2.8
v 33.2 4.8 -2.8
v 33.2 4.9 -2.8
v 33.2 5 -2.8
v 33.3 4.9 -2.8
v 33.3 5 -2.8
v 33.3 5.1 -2.8
v 34.1 5 -2.8
v 34.1 5.1 -2.8
v 34.1 5.2 -2.8
v 34.2 5.1 -2.8
v 34.2 5.2 -2.8
v 34.2 5.5 -2.8
v 34.2 5.6 -2.8
v 28.7 4.5 -2.9
v 28.7 4.6 -2.9
v 28.8 4.5 -2.9
v 28.8 4.6 -2.9
v 28.8 5.4 -2.9
v 28.9 4.6 -2.9
v 28.9 5.1 -2.9
v 28.9 5.3 -2.9
v 28.9 5.4 -2.9
v 30.7 5.1 -2.9
v 30.7 5.2 -2.9
v 30.7 5.3 -2.9
v 30.8 4.7 -2.9
v 30.8 4.8 -2.9
v 31 4.7 -2.9
v 31 4.8 -2.9
v 32.8 4.9 -2.9
v 32.8 5.1 -2.9
v 32.9 4.9 -2.9
v 32.9 5.1 -2.9
v 34.1 5.6 -2.9
v 34.1 5.7 -2.9
v 34.2 5.6 -2.9
v 34.2 5.7 -2.9
v 30.7 5.6 -3
v 30.7 5.7 -3
v 30.8 5.6 -3
v 30.8 5.7 -3
v 32 4.1 -3
v 32 4.3 -3
v 32.6 4.1 -3
v 32.6 4.3 -3
v 33.8 5.3 -3
v 33.8 5.4 -3
v 34.2 5.3 -3
v 34.2 5.4 -3
v 30.7 5.6 -2.9
v 30.7 5.7 -2.9
v 30.8 5.6 -2.9
v 30.8 5.7 -2.9
v 32 4.1 -2.9
v 32 4.3 -2.9
v 32.6 4.1 -2.9
v 32.6 4.3 -2.9
v 33.8 5.3 -2.9
v 33.8 5.4 -2.9
v 34.2 5.3 -2.9
v 34.2 5.4 -2.9
v 28.7 4.5 -3
v 28.7 4.6 -3
v 28.8 4.5 -3
v 28.8 4.6 -3
v 28.8 5.4 -3
v 28.9 4.6 -3
v 28.9 5.1 -3
v 28.9 5.3 -3
v 28.9 5.4 -3
v 30.7 5.1 -3
v 30.7 5.3 -3
v 30.8 4.7 -3
v 30.8 4.8 -3
v 31 4.7 -3
v 31 4.8 -3
v 34.1 5.6 -3
v 34.1 5.7 -3
v 34.2 5.6 -3
v 34.2 5.7 -3
v 28.7 4.6 -3.1
v 28.7 5.5 -3.1
v 28.8 4.6 -3.1
v 28.8 5.5 -3.1
v 30.7 4.9 -3.1
v 30.7 5.2 -3.1
v 30.7 5.4 -3.1
v 30.7 5.6 -3.1
v 30.7 5.7 -3.1
v 30.8 4.8 -3.1
v 30.8 4.9 -3.1
v 30.8 5.2 -3.1
v 30.8 5.4 -3.1
v 30.8 5.5 -3.1
v 30.8 5.6 -3.1
v 30.8 5.7 -3.1
v 31.9 4.1 -3.1
v 31.9 4.8 -3.1
v 31.9 4.9 -3.1
v 32 4.1 -3.1
v 32 4.8 -3.1
v 32.6 4.1 -3.1
v 32.6 4.7 -3.1
v 32.7 4.1 -3.1
v 32.7 4.7 -3.1
v 32.8 4.9 -3.1
v 32.8 5.1 -3.1
v 32.9 4.9 -3.1
v 32.9 5.1 -3.1
v 33.1 4.8 -3.1
v 33.1 4.9 -3.1
v 33.2 4.8 -3.1
v 33.2 4.9 -3.1
v 33.2 5 -3.1
v 33.3 4.9 -3.1
v 33.3 5 -3.1
v 33.3 5.1 -3.1
v 34.1 5 -3.1
v 34.1 5.1 -3.1
v 34.1 5.2 -3.1
v 34.2 5.1 -3.1
v 34.2 5.2 -3.1
v 34.2 5.5 -3.1
v 34.2 5.6 -3.1
v 30.7 5.2 -3.2
v 30.7 5.4 -3.2
v 30.8 4.9 -3.2
v 30.8 5.2 -3.2
v 30.8 5.3 -3.2
v 30.8 5.4 -3.2
v 30.8 5.5 -3.2
v 31.9 4.8 -3.2
v 31.9 4.9 -3.2
v 32 4.1 -3.2
v 32 4.8 -3.2
v 32.6 4.1 -3.2
v 32.6 4.7 -3.2
v 32.7 4.8 -3.2
v 32.7 5.1 -3.2
v 33 4.7 -3.2
v 33 4.8 -3.2
v 33 4.9 -3.2
v 33.1 4.8 -3.2
v 33.1 4.9 -3.2
v 33.1 5.1 -3.2
v 33.2 4.9 -3.2
v 33.2 5 -3.2
v 33.3 5 -3.2
v 33.3 5.1 -3.2
v 34.1 5.1 -3.2
v 34.1 5.2 -3.2
v 34.2 5.2 -3.2
v 34.2 5.3 -3.2
v 34.2 5.5 -3.2
v 32 4.1 -2.7
v 32.6 4.1 -2.7
v 31.9 4.1 -2.8
v 32 4.1 -2.8
v 32.6 4.1 -2.8
v 32.7 4.1 -2.8
v 32 4.1 -2.9
v 32.6 4.1 -2.9
v 32 4.1 -3
v 32.6 4.1 -3
v 31.9 4.1 -3.1
v 32 4.1 -3.1
v 32.6 4.1 -3.1
v 32.7 4.1 -3.1
v 32 4.1 -3.2
v 32.6 4.1 -3.2
v 32 4.3 -2.9
v 32.6 4.3 -2.9
v 32 4.3 -3
v 32.6 4.3 -3
v 28.7 4.5 -2.9
v 28.8 4.5 -2.9
v 28.7 4.5 -3
v 28.8 4.5 -3
v 28.7 4.6 -2.8
v 28.8 4.6 -2.8
v 28.7 4.6 -2.9
v 28.8 4.6 -2.9
v 28.9 4.6 -2.9
v 28.7 4.6 -3
v 28.8 4.6 -3
v 28.9 4.6 -3
v 28.7 4.6 -3.1
v 28.8 4.6 -3.1
v 32.6 4.7 -2.7
v 33 4.7 -2.7
v 32.6 4.7 -2.8
v 32.7 4.7 -2.8
v 30.8 4.7 -2.9
v 31 4.7 -2.9
v 30.8 4.7 -3
v 31 4.7 -3
v 32.6 4.7 -3.1
v 32.7 4.7 -3.1
v 32.6 4.7 -3.2
v 33 4.7 -3.2
v 31.9 4.8 -2.7
v 32 4.8 -2.7
v 33 4.8 -2.7
v 33.1 4.8 -2.7
v 30.8 4.8 -2.8
v 31.9 4.8 -2.8
v 32 4.8 -2.8
v 33.1 4.8 -2.8
v 33.2 4.8 -2.8
v 30.8 4.8 -2.9
v 31 4.8 -2.9
v 30.8 4.8 -3
v 31 4.8 -3
v 30.8 4.8 -3.1
v 31.9 4.8 -3.1
v 32 4.8 -3.1
v 33.1 4.8 -3.1
v 33.2 4.8 -3.1
v 31.9 4.8 -3.2
v 32 4.8 -3.2
v 33 4.8 -3.2
v 33.1 4.8 -3.2
v 30.8 4.9 -2.7
v 31.9 4.9 -2.7
v 33.1 4.9 -2.7
v 33.2 4.9 -2.7
v 30.7 4.9 -2.8
v 30.8 4.9 -2.8
v 31.9 4.9 -2.8
v 33.1 4.9 -2.8
v 33.2 4.9 -2.8
v 33.3 4.9 -2.8
v 32.8 4.9 -2.9
v 32.9 4.9 -2.9
v 30.7 4.9 -3.1
v 30.8 4.9 -3.1
v 31.9 4.9 -3.1
v 32.8 4.9 -3.1
v 32.9 4.9 -3.1
v 33.1 4.9 -3.1
v 33.2 4.9 -3.1
v 33.3 4.9 -3.1
v 30.8 4.9 -3.2
v 31.9 4.9 -3.2
v 33.1 4.9 -3.2
v 33.2 4.9 -3.2
v 33.2 5 -2.7
v 33.3 5 -2.7
v 33.2 5 -2.8
v 33.3 5 -2.8
v 34.1 5 -2.8
v 33.2 5 -3.1
v 33.3 5 -3.1
v 34.1 5 -3.1
v 33.2 5 -3.2
v 33.3 5 -3.2
v 32.7 5.1 -2.7
v 33.1 5.1 -2.7
v 33.3 5.1 -2.7
v 34.1 5.1 -2.7
v 33.3 5.1 -2.8
v 34.1 5.1 -2.8
v 34.2 5.1 -2.8
v 28.9 5.1 -2.9
v 30.7 5.1 -2.9
v 32.8 5.1 -2.9
v 32.9 5.1 -2.9
v 28.9 5.1 -3
v 30.7 5.1 -3
v 32.8 5.1 -3.1
v 32.9 5.1 -3.1
v 33.3 5.1 -3.1
v 34.1 5.1 -3.1
v 34.2 5.1 -3.1
v 32.7 5.1 -3.2
v 33.1 5.1 -3.2
v 33.3 5.1 -3.2
v 34.1 5.1 -3.2
v 30.7 5.2 -2.7
v 30.8 5.2 -2.7
v 34.1 5.2 -2.7
v 34.2 5.2 -2.7
v 30.7 5.2 -2.8
v 30.8 5.2 -2.8
v 34.1 5.2 -2.8
v 34.2 5.2 -2.8
v 30.7 5.2 -3.1
v 30.8 5.2 -3.1
v 34.1 5.2 -3.1
v 34.2 5.2 -3.1
v 30.7 5.2 -3.2
v 30.8 5.2 -3.2
v 34.1 5.2 -3.2
v 34.2 5.2 -3.2
v 32 5.4 -2.7
v 32.6 5.4 -2.7
v 32 5.4 -2.8
v 32.6 5.4 -2.8
v 33.8 5.4 -2.9
v 34.2 5.4 -2.9
v 33.8 5.4 -3
v 34.2 5.4 -3
v 32.7 4.8 -2.7
v 33 4.8 -2.7
v 32.7 4.8 -3.2
v 33 4.8 -3.2
v 33 4.9 -2.7
v 33.1 4.9 -2.7
v 33 4.9 -3.2
v 33.1 4.9 -3.2
v 32 5.2 -2.7
v 32.6 5.2 -2.7
v 32 5.2 -2.8
v 32.6 5.2 -2.8
v 28.9 5.3 -2.9
v 30.7 5.3 -2.9
v 33.8 5.3 -2.9
v 34.2 5.3 -2.9
v 28.9 5.3 -3
v 30.7 5.3 -3
v 33.8 5.3 -3
v 34.2 5.3 -3
v 30.7 5.4 -2.7
v 30.8 5.4 -2.7
v 30.7 5.4 -2.8
v 30.8 5.4 -2.8
v 28.8 5.4 -2.9
v 28.9 5.4 -2.9
v 28.8 5.4 -3
v 28.9 5.4 -3
v 30.7 5.4 -3.1
v 30.8 5.4 -3.1
v 30.7 5.4 -3.2
v 30.8 5.4 -3.2
v 30.8 5.5 -2.7
v 34.2 5.5 -2.7
v 28.7 5.5 -2.8
v 28.8 5.5 -2.8
v 30.8 5.5 -2.8
v 34.2 5.5 -2.8
v 28.7 5.5 -3.1
v 28.8 5.5 -3.1
v 30.8 5.5 -3.1
v 34.2 5.5 -3.1
v 30.8 5.5 -3.2
v 34.2 5.5 -3.2
v 30.8 5.6 -2.8
v 34.2 5.6 -2.8
v 30.7 5.6 -2.9
v 30.8 5.6 -2.9
v 34.1 5.6 -2.9
v 34.2 5.6 -2.9
v 30.7 5.6 -3
v 30.8 5.6 -3
v 34.1 5.6 -3
v 34.2 5.6 -3
v 30.8 5.6 -3.1
v 34.2 5.6 -3.1
v 30.7 5.7 -2.8
v 30.8 5.7 -2.8
v 30.7 5.7 -2.9
v 30.8 5.7 -2.9
v 34.1 5.7 -2.9
v 34.2 5.7 -2.9
v 30.7 5.7 -3
v 30.8 5.7 -3
v 34.1 5.7 -3
v 34.2 5.7 -3
v 30.7 5.7 -3.1
v 30.8 5.7 -3.1

# faces
f 4/3/1 2/3/1 1/3/1
f 5/3/1 2/3/1 4/3/1
f 7/5/1 4/5/1 3/5/1
f 7/5/1 6/5/1 5/5/1
f 7/5/1 5/5/1 4/5/1
f 8/5/1 6/5/1 7/5/1
f 11/5/1 10/5/1 9/5/1
f 12/5/1 10/5/1 11/5/1
f 14/5/1 11/5/1 9/5/1
f 15/5/1 11/5/1 14/5/1
f 16/5/1 10/5/1 12/5/1
f 18/3/1 15/3/1 14/3/1
f 18/1/1 14/1/1 13/1/1
f 19/3/1 15/3/1 18/3/1
f 20/5/1 16/5/1 12/5/1
f 21/1/1 18/1/1 13/1/1
f 22/5/1 19/5/1 18/5/1
f 22/1/1 18/1/1 21/1/1
f 22/5/1 20/5/1 19/5/1
f 23/1/1 17/1/1 16/1/1
f 23/5/1 20/5/1 22/5/1
f 23/5/1 16/5/1 20/5/1
f 24/1/1 17/1/1 23/1/1
f 25/5/1 23/5/1 22/5/1
f 26/5/1 23/5/1 25/5/1
f 27/5/1 23/5/1 26/5/1
f 28/5/1 23/5/1 27/5/1
f 29/4/1 26/4/1 25/4/1
f 30/4/1 26/4/1 29/4/1
f 31/4/1 28/4/1 27/4/1
f 32/4/1 28/4/1 31/4/1
f 36/4/1 34/4/1 33/4/1
f 37/4/1 34/4/1 36/4/1
f 40/5/1 36/5/1 35/5/1
f 40/5/1 38/5/1 37/5/1
f 40/5/1 37/5/1 36/5/1
f 41/5/1 38/5/1 40/5/1
f 43/5/1 40/5/1 39/5/1
f 44/5/1 40/5/1 43/5/1
f 45/5/1 42/5/1 41/5/1
f 46/5/1 42/5/1 45/5/1
f 51/5/1 48/5/1 47/5/1
f 52/5/1 48/5/1 51/5/1
f 53/5/1 50/5/1 49/5/1
f 54/5/1 50/5/1 53/5/1
f 58/5/1 56/5/1 55/5/1
f 59/5/1 56/5/1 58/5/1
f 61/5/1 58/5/1 57/5/1
f 62/5/1 58/5/1 61/5/1
f 63/5/1 60/5/1 59/5/1
f 64/5/1 60/5/1 63/5/1
f 69/5/1 66/5/1 65/5/1
f 70/5/1 66/5/1 69/5/1
f 71/5/1 68/5/1 67/5/1
f 72/5/1 68/5/1 71/5/1
f 75/5/1 74/5/1 73/5/1
f 76/5/1 74/5/1 75/5/1
f 79/1/1 78/1/1 77/1/1
f 80/1/1 78/1/1 79/1/1
f 81/5/1 80/5/1 79/5/1
f 82/5/1 80/5/1 81/5/1
f 85/5/1 84/5/1 83/5/1
f 86/5/1 84/5/1 85/5/1
f 89/5/1 88/5/1 87/5/1
f 90/5/1 88/5/1 89/5/1
f 93/5/1 92/5/1 91/5/1
f 94/5/1 92/5/1 93/5/1
f 97/4/1 96/4/1 95/4/1
f 98/4/1 96/4/1 97/4/1
f 99/3/2 100/3/2 102/3/2
f 102/3/2 100/3/2 103/3/2
f 101/5/2 102/5/2 105/5/2
f 103/5/2 104/5/2 106/5/2
f 101/5/2 105/5/2 107/5/2
f 105/5/2 106/5/2 107/5/2
f 106/5/2 104/5/2 108/5/2
f 107/5/2 106/5/2 108/5/2
f 109/5/2 110/5/2 111/5/2
f 111/5/2 110/5/2 112/5/2
f 113/5/2 114/5/2 115/5/2
f 115/5/2 114/5/2 116/5/2
f 117/4/2 118/4/2 121/4/2
f 121/4/2 118/4/2 122/4/2
f 119/4/2 120/4/2 123/4/2
f 123/4/2 120/4/2 124/4/2
f 125/4/2 126/4/2 127/4/2
f 127/4/2 126/4/2 128/4/2
f 129/5/2 130/5/2 131/5/2
f 131/5/2 130/5/2 132/5/2
f 133/1/2 134/1/2 135/1/2
f 135/1/2 134/1/2 136/1/2
f 135/5/2 136/5/2 137/5/2
f 137/5/2 136/5/2 138/5/2
f 139/5/2 140/5/2 143/5/2
f 143/5/2 140/5/2 144/5/2
f 141/5/2 142/5/2 145/5/2
f 145/5/2 142/5/2 146/5/2
f 147/5/2 148/5/2 149/5/2
f 149/5/2 148/5/2 150/5/2
f 151/5/2 152/5/2 153/5/2
f 153/5/2 152/5/2 154/5/2
f 155/5/2 156/5/2 157/5/2
f 157/5/2 156/5/2 158/5/2
f 159/5/2 160/5/2 161/5/2
f 161/5/2 160/5/2 162/5/2
f 163/5/2 164/5/2 167/5/2
f 167/5/2 164/5/2 168/5/2
f 165/5/2 166/5/2 169/5/2
f 169/5/2 166/5/2 170/5/2
f 171/5/2 172/5/2 174/5/2
f 174/5/2 172/5/2 175/5/2
f 173/5/2 174/5/2 177/5/2
f 177/5/2 174/5/2 178/5/2
f 175/5/2 176/5/2 179/5/2
f 179/5/2 176/5/2 180/5/2
f 181/5/2 182/5/2 184/5/2
f 184/5/2 182/5/2 185/5/2
f 183/5/2 184/5/2 187/5/2
f 187/5/2 184/5/2 188/5/2
f 185/5/2 186/5/2 189/5/2
f 189/5/2 186/5/2 190/5/2
f 191/5/2 192/5/2 193/5/2
f 193/5/2 192/5/2 194/5/2
f 195/5/2 196/5/2 198/5/2
f 198/5/2 196/5/2 199/5/2
f 197/5/2 198/5/2 201/5/2
f 201/5/2 198/5/2 202/5/2
f 199/5/2 200/5/2 203/5/2
f 203/5/2 200/5/2 204/5/2
f 205/5/2 206/5/2 208/5/2
f 208/5/2 206/5/2 209/5/2
f 207/1/2 208/1/2 211/1/2
f 208/5/2 209/5/2 212/5/2
f 211/1/2 208/1/2 212/1/2
f 212/5/2 209/5/2 213/5/2
f 213/5/2 209/5/2 214/5/2
f 209/1/2 210/1/2 215/1/2
f 214/5/2 209/5/2 215/5/2
f 215/1/2 210/1/2 216/1/2
f 211/5/2 212/5/2 217/5/2
f 212/5/2 213/5/2 217/5/2
f 215/5/2 216/5/2 218/5/2
f 214/5/2 215/5/2 218/5/2
f 211/5/2 217/5/2 219/5/2
f 217/5/2 218/5/2 219/5/2
f 219/5/2 218/5/2 220/5/2
f 218/5/2 216/5/2 221/5/2
f 220/5/2 218/5/2 221/5/2
f 221/5/2 216/5/2 222/5/2
f 220/5/2 221/5/2 223/5/2
f 223/5/2 221/5/2 224/5/2
f 224/5/2 221/5/2 225/5/2
f 225/5/2 221/5/2 226/5/2
f 224/4/2 225/4/2 227/4/2
f 227/4/2 225/4/2 228/4/2
f 232/1/3 230/1/3 229/1/3
f 233/1/3 230/1/3 232/1/3
f 234/1/3 230/1/3 233/1/3
f 237/5/3 232/5/3 231/5/3
f 239/5/3 237/5/3 236/5/3
f 240/1/3 233/1/3 232/1/3
f 240/5/3 232/5/3 237/5/3
f 240/5/3 237/5/3 239/5/3
f 241/5/3 235/5/3 234/5/3
f 241/1/3 233/1/3 240/1/3
f 241/5/3 234/5/3 233/5/3
f 242/5/3 235/5/3 241/5/3
f 243/5/3 240/5/3 239/5/3
f 243/5/3 239/5/3 238/5/3
f 244/5/3 240/5/3 243/5/3
f 245/5/3 240/5/3 244/5/3
f 247/5/3 235/5/3 242/5/3
f 248/5/3 245/5/3 244/5/3
f 249/5/3 245/5/3 248/5/3
f 250/5/3 248/5/3 244/5/3
f 251/5/3 248/5/3 250/5/3
f 253/5/3 252/5/3 251/5/3
f 254/5/3 252/5/3 253/5/3
f 255/5/3 245/5/3 249/5/3
f 256/5/3 255/5/3 254/5/3
f 257/5/3 255/5/3 256/5/3
f 258/5/3 255/5/3 257/5/3
f 259/5/3 245/5/3 255/5/3
f 259/5/3 255/5/3 258/5/3
f 260/5/3 245/5/3 259/5/3
f 261/1/3 246/1/3 245/1/3
f 261/5/3 245/5/3 260/5/3
f 262/1/3 246/1/3 261/1/3
f 263/5/3 247/5/3 246/5/3
f 263/1/3 246/1/3 262/1/3
f 264/5/3 235/5/3 247/5/3
f 264/5/3 247/5/3 263/5/3
f 267/5/3 266/5/3 265/5/3
f 268/5/3 266/5/3 267/5/3
f 275/5/3 270/5/3 269/5/3
f 276/5/3 270/5/3 275/5/3
f 277/5/3 272/5/3 271/5/3
f 278/5/3 272/5/3 277/5/3
f 279/4/3 273/4/3 272/4/3
f 279/5/3 272/5/3 278/5/3
f 280/4/3 273/4/3 279/4/3
f 282/5/3 275/5/3 274/5/3
f 283/5/3 275/5/3 282/5/3
f 284/5/3 282/5/3 281/5/3
f 285/5/3 282/5/3 284/5/3
f 291/2/3 288/2/3 287/2/3
f 291/2/3 287/2/3 286/2/3
f 292/2/3 288/2/3 291/2/3
f 293/2/3 288/2/3 292/2/3
f 294/5/3 290/5/3 289/5/3
f 295/5/3 290/5/3 294/5/3
f 298/5/3 297/5/3 296/5/3
f 299/5/3 297/5/3 298/5/3
f 301/5/3 300/5/3 299/5/3
f 302/5/3 300/5/3 301/5/3
f 304/5/3 303/5/3 302/5/3
f 305/5/3 303/5/3 304/5/3
f 307/5/3 306/5/3 305/5/3
f 308/5/3 306/5/3 307/5/3
f 309/5/3 279/5/3 278/5/3
f 310/5/3 279/5/3 309/5/3
f 313/3/3 312/3/3 311/3/3
f 314/3/3 312/3/3 313/3/3
f 316/5/3 315/5/3 314/5/3
f 317/5/3 315/5/3 316/5/3
f 318/5/3 315/5/3 317/5/3
f 319/5/3 315/5/3 318/5/3
f 320/5/3 318/5/3 317/5/3
f 321/5/3 318/5/3 320/5/3
f 322/5/3 318/5/3 321/5/3
f 325/4/3 324/4/3 323/4/3
f 326/4/3 324/4/3 325/4/3
f 329/5/3 328/5/3 327/5/3
f 330/5/3 328/5/3 329/5/3
f 333/4/3 332/4/3 331/4/3
f 334/4/3 332/4/3 333/4/3
f 337/4/3 336/4/3 335/4/3
f 338/4/3 336/4/3 337/4/3
f 341/5/3 340/5/3 339/5/3
f 342/5/3 340/5/3 341/5/3
f 345/5/3 344/5/3 343/5/3
f 346/5/3 344/5/3 345/5/3
f 347/4/4 348/4/4 349/4/4
f 349/4/4 348/4/4 350/4/4
f 351/5/4 352/5/4 353/5/4
f 353/5/4 352/5/4 354/5/4
f 355/5/4 356/5/4 357/5/4
f 357/5/4 356/5/4 358/5/4
f 359/3/4 360/3/4 361/3/4
f 361/3/4 360/3/4 362/3/4
f 362/5/4 363/5/4 364/5/4
f 364/5/4 363/5/4 365/5/4
f 365/5/4 363/5/4 366/5/4
f 366/5/4 363/5/4 367/5/4
f 365/5/4 366/5/4 368/5/4
f 368/5/4 366/5/4 369/5/4
f 370/4/4 371/4/4 372/4/4
f 372/4/4 371/4/4 373/4/4
f 374/4/4 375/4/4 376/4/4
f 376/4/4 375/4/4 377/4/4
f 378/5/4 379/5/4 380/5/4
f 380/5/4 379/5/4 381/5/4
f 382/5/4 383/5/4 388/5/4
f 388/5/4 383/5/4 389/5/4
f 384/5/4 385/5/4 390/5/4
f 390/5/4 385/5/4 391/5/4
f 385/4/4 386/4/4 392/4/4
f 391/5/4 385/5/4 392/5/4
f 392/4/4 386/4/4 393/4/4
f 387/5/4 388/5/4 395/5/4
f 395/5/4 388/5/4 396/5/4
f 394/5/4 395/5/4 397/5/4
f 397/5/4 395/5/4 398/5/4
f 399/5/4 400/5/4 401/5/4
f 401/5/4 400/5/4 402/5/4
f 403/5/4 404/5/4 405/5/4
f 405/5/4 404/5/4 406/5/4
f 407/5/4 408/5/4 409/5/4
f 409/5/4 408/5/4 410/5/4
f 410/5/4 411/5/4 412/5/4
f 412/5/4 411/5/4 413/5/4
f 413/5/4 414/5/4 415/5/4
f 415/5/4 414/5/4 416/5/4
f 416/5/4 417/5/4 418/5/4
f 418/5/4 417/5/4 419/5/4
f 391/5/4 392/5/4 420/5/4
f 420/5/4 392/5/4 421/5/4
f 422/1/4 423/1/4 425/1/4
f 425/1/4 423/1/4 426/1/4
f 426/1/4 423/1/4 427/1/4
f 424/5/4 425/5/4 430/5/4
f 429/5/4 430/5/4 432/5/4
f 431/5/4 432/5/4 433/5/4
f 433/5/4 432/5/4 434/5/4
f 432/5/4 430/5/4 435/5/4
f 434/5/4 432/5/4 435/5/4
f 430/5/4 425/5/4 436/5/4
f 435/5/4 430/5/4 436/5/4
f 434/5/4 435/5/4 437/5/4
f 437/5/4 435/5/4 438/5/4
f 438/5/4 439/5/4 440/5/4
f 440/5/4 439/5/4 441/5/4
f 436/5/4 425/5/4 442/5/4
f 441/5/4 442/5/4 443/5/4
f 443/5/4 442/5/4 444/5/4
f 444/5/4 442/5/4 445/5/4
f 442/5/4 425/5/4 446/5/4
f 445/5/4 442/5/4 446/5/4
f 446/5/4 425/5/4 447/5/4
f 425/1/4 426/1/4 448/1/4
f 447/5/4 425/5/4 448/5/4
f 448/1/4 426/1/4 449/1/4
f 427/5/4 428/5/4 450/5/4
f 449/1/4 426/1/4 450/1/4
f 426/5/4 427/5/4 450/5/4
f 450/5/4 428/5/4 451/5/4
f 455/5/5 453/5/5 452/5/5
f 456/5/5 453/5/5 455/5/5
f 458/5/5 455/5/5 454/5/5
f 458/5/5 457/5/5 456/5/5
f 458/5/5 456/5/5 455/5/5
f 459/5/5 457/5/5 458/5/5
f 460/5/5 458/5/5 454/5/5
f 461/5/5 457/5/5 459/5/5
f 462/5/5 460/5/5 454/5/5
f 462/5/5 461/5/5 460/5/5
f 463/5/5 461/5/5 462/5/5
f 464/5/5 457/5/5 461/5/5
f 464/5/5 461/5/5 463/5/5
f 465/5/5 457/5/5 464/5/5
f 466/5/5 464/5/5 463/5/5
f 467/5/5 464/5/5 466/5/5
f 470/5/5 469/5/5 468/5/5
f 471/5/5 469/5/5 470/5/5
f 474/3/5 473/3/5 472/3/5
f 475/3/5 473/3/5 474/3/5
f 478/5/5 477/5/5 476/5/5
f 479/5/5 477/5/5 478/5/5
f 482/5/5 480/5/5 479/5/5
f 483/5/5 480/5/5 482/5/5
f 484/5/5 482/5/5 481/5/5
f 485/5/5 482/5/5 484/5/5
f 488/5/5 487/5/5 486/5/5
f 489/5/5 487/5/5 488/5/5
f 492/4/5 491/4/5 490/4/5
f 493/4/5 491/4/5 492/4/5
f 495/5/5 487/5/5 489/5/5
f 496/5/5 495/5/5 494/5/5
f 497/5/5 487/5/5 495/5/5
f 497/5/5 495/5/5 496/5/5
f 503/5/5 499/5/5 498/5/5
f 504/5/5 499/5/5 503/5/5
f 505/5/5 501/5/5 500/5/5
f 507/5/5 503/5/5 502/5/5
f 508/5/5 503/5/5 507/5/5
f 510/5/5 503/5/5 508/5/5
f 511/5/5 510/5/5 509/5/5
f 512/5/5 503/5/5 510/5/5
f 512/5/5 510/5/5 511/5/5
f 514/5/5 506/5/5 505/5/5
f 514/5/5 505/5/5 500/5/5
f 515/5/5 506/5/5 514/5/5
f 516/5/5 513/5/5 512/5/5
f 517/5/5 513/5/5 516/5/5
f 518/5/5 514/5/5 500/5/5
f 519/5/5 514/5/5 518/5/5
f 525/5/5 521/5/5 520/5/5
f 526/5/5 521/5/5 525/5/5
f 527/5/5 523/5/5 522/5/5
f 528/5/5 523/5/5 527/5/5
f 532/5/5 525/5/5 524/5/5
f 533/5/5 525/5/5 532/5/5
f 535/5/5 531/5/5 530/5/5
f 536/5/5 531/5/5 535/5/5
f 538/5/5 529/5/5 528/5/5
f 539/5/5 529/5/5 538/5/5
f 540/5/5 534/5/5 533/5/5
f 541/5/5 534/5/5 540/5/5
f 542/5/5 538/5/5 537/5/5
f 543/5/5 538/5/5 542/5/5
f 546/5/5 545/5/5 544/5/5
f 547/5/5 545/5/5 546/5/5
f 550/5/5 548/5/5 547/5/5
f 551/5/5 548/5/5 550/5/5
f 552/5/5 550/5/5 549/5/5
f 553/5/5 550/5/5 552/5/5
f 558/5/5 557/5/5 556/5/5
f 559/5/5 557/5/5 558/5/5
f 563/5/5 555/5/5 554/5/5
f 564/5/5 555/5/5 563/5/5
f 565/5/5 562/5/5 561/5/5
f 566/5/5 562/5/5 565/5/5
f 567/5/5 563/5/5 554/5/5
f 568/5/5 555/5/5 564/5/5
f 570/5/5 560/5/5 559/5/5
f 571/5/5 560/5/5 570/5/5
f 572/5/5 567/5/5 554/5/5
f 572/5/5 568/5/5 567/5/5
f 573/5/5 555/5/5 568/5/5
f 573/5/5 568/5/5 572/5/5
f 574/5/5 570/5/5 569/5/5
f 575/5/5 570/5/5 574/5/5
f 580/1/5 577/1/5 576/1/5
f 581/1/5 577/1/5 580/1/5
f 582/1/5 579/1/5 578/1/5
f 583/1/5 579/1/5 582/1/5
f 588/1/5 585/1/5 584/1/5
f 589/1/5 585/1/5 588/1/5
f 590/1/5 587/1/5 586/1/5
f 591/1/5 587/1/5 590/1/5
f 594/5/5 593/5/5 592/5/5
f 595/5/5 593/5/5 594/5/5
f 598/5/5 597/5/5 596/5/5
f 599/5/5 597/5/5 598/5/5
f 600/5/6 601/5/6 602/5/6
f 602/5/6 601/5/6 603/5/6
f 604/5/6 605/5/6 606/5/6
f 606/5/6 605/5/6 607/5/6
f 608/5/6 609/5/6 610/5/6
f 610/5/6 609/5/6 611/5/6
f 612/5/6 613/5/6 616/5/6
f 616/5/6 613/5/6 617/5/6
f 614/5/6 615/5/6 618/5/6
f 618/5/6 615/5/6 619/5/6
f 620/1/6 621/1/6 622/1/6
f 622/1/6 621/1/6 623/1/6
f 624/5/6 625/5/6 626/5/6
f 626/5/6 625/5/6 627/5/6
f 628/1/6 629/1/6 630/1/6
f 630/1/6 629/1/6 631/1/6
f 632/5/6 633/5/6 636/5/6
f 636/5/6 633/5/6 637/5/6
f 634/5/6 635/5/6 638/5/6
f 638/5/6 635/5/6 639/5/6
f 640/5/6 641/5/6 642/5/6
f 642/5/6 641/5/6 643/5/6
f 644/5/6 645/5/6 647/5/6
f 647/5/6 645/5/6 648/5/6
f 648/5/6 645/5/6 649/5/6
f 646/5/6 647/5/6 650/5/6
f 647/5/6 648/5/6 650/5/6
f 650/5/6 648/5/6 651/5/6
f 651/5/6 648/5/6 652/5/6
f 652/5/6 653/5/6 654/5/6
f 651/5/6 652/5/6 654/5/6
f 654/5/6 653/5/6 655/5/6
f 656/4/6 657/4/6 658/4/6
f 658/4/6 657/4/6 659/4/6
f 660/4/6 661/4/6 664/4/6
f 664/4/6 661/4/6 665/4/6
f 662/4/6 663/4/6 666/4/6
f 666/4/6 663/4/6 667/4/6
